<?xml version="1.0" encoding="utf-8"?>
<!-- Generator: Adobe Illustrator 16.0.5, SVG Export Plug-In . SVG Version: 6.00 Build 0)  -->
<!DOCTYPE svg PUBLIC "-//W3C//DTD SVG 1.1//EN" "http://www.w3.org/Graphics/SVG/1.1/DTD/svg11.dtd">
<svg version="1.1" id="Layer_1" xmlns="http://www.w3.org/2000/svg" xmlns:xlink="http://www.w3.org/1999/xlink" x="0px" y="0px"
	 width="20px" height="20px" viewBox="0 0 20 20" enable-background="new 0 0 20 20" xml:space="preserve">
<path fill="#FFFFFF" d="M11.414,10l7.293-7.293c0.391-0.391,0.391-1.023,0-1.414s-1.023-0.391-1.414,0L10,8.586L2.707,1.293
	c-0.391-0.391-1.023-0.391-1.414,0s-0.391,1.023,0,1.414L8.586,10l-7.293,7.293c-0.391,0.391-0.391,1.023,0,1.414
	C1.488,18.902,1.744,19,2,19s0.512-0.098,0.707-0.293L10,11.414l7.293,7.293C17.488,18.902,17.744,19,18,19s0.512-0.098,0.707-0.293
	c0.391-0.391,0.391-1.023,0-1.414L11.414,10z"/>
</svg>
