<?xml version="1.0" encoding="utf-8"?>
<!-- Generator: Adobe Illustrator 16.0.5, SVG Export Plug-In . SVG Version: 6.00 Build 0)  -->
<!DOCTYPE svg PUBLIC "-//W3C//DTD SVG 1.1//EN" "http://www.w3.org/Graphics/SVG/1.1/DTD/svg11.dtd">
<svg version="1.1" id="Layer_1" xmlns="http://www.w3.org/2000/svg" xmlns:xlink="http://www.w3.org/1999/xlink" x="0px" y="0px"
	 width="290.119px" height="100px" viewBox="0 0 290.119 100" enable-background="new 0 0 290.119 100" xml:space="preserve">
<g>
	<path fill-rule="evenodd" clip-rule="evenodd" fill="#FFFFFF" d="M34.663,91.476C20.807,84.96,12.979,76.457,13.424,66.562
		c1.254-27.725,66.97-56.178,146.299-63.327c23.87-2.153,46.319-2.136,66.02-0.308c-22.635-3.285-49.95-3.937-79.434-1.28
		C66.991,8.802,1.272,37.25,0.018,64.973c-0.615,13.612,14.417,24.584,39.265,31.382L34.663,91.476z"/>
</g>
<g>
	<path fill="#FFFFFF" d="M30.074,82.218c-4.145-4.205-6.133-8.775-5.915-13.63c1.158-25.564,62.001-51.765,135.628-58.402
		c11.268-1.018,22.45-1.532,33.236-1.532c20.125,0,38.982,1.818,54.541,5.258l0.255-1.061c-16.514-4.305-37.18-6.58-59.756-6.58
		c-10.693,0-21.779,0.511-32.95,1.519C81.86,14.393,21.317,40.735,20.151,66.511c-0.316,7.066,3.704,13.459,11.941,18.999
		L30.074,82.218z"/>
	<path fill="#FFFFFF" d="M94.218,84.746c-20.822,0-37.554-9.683-37.554-24.139c0-14.526,16.731-24.068,37.554-24.068
		c9.912,0,19.004,2.526,25.643,6.525l-8.274,5.895c-3.637-2.245-9.184-4.771-15.913-4.771c-9.638,0-15.821,4.912-15.821,16.42
		c0,11.368,6.183,16.279,15.821,16.279c6.729,0,12.276-2.384,15.913-4.631l8.274,5.895C113.223,82.221,104.13,84.746,94.218,84.746"
		/>
	<polygon fill="#FFFFFF" points="188.186,83.274 188.186,54.993 172.088,83.274 158.025,83.274 139.706,54.993 139.706,83.274 
		125.736,83.274 125.736,38.013 152.844,38.013 170.331,65.239 185.965,38.013 209.834,38.013 209.834,83.274 	"/>
	<path fill="#FFFFFF" d="M247.27,84.746c-15.73,0-25.643-5.333-29.462-8.911l8.457-5.474c4.184,3.299,13.095,7.158,21.005,7.158
		c7.002,0,10.456-1.263,10.456-3.439c0-4-8.271-4.981-16.731-6.806c-12.546-2.737-21.912-6.106-21.912-14.736
		c0-10.666,12.821-15.93,29.006-15.93c11.731,0,19.641,2.316,26.37,7.088l-8.184,5.193c-4.818-3.369-13.276-5.193-17.914-5.193
		c-7.456,0-10.367,1.614-10.367,3.72c0,3.297,6.548,3.647,17.007,5.964c13.003,2.878,22.732,6.947,22.732,15.719
		C277.733,78.642,266.183,84.746,247.27,84.746"/>
	<path fill="#FFFFFF" d="M54.202,98.591c-0.121,0.307-0.208,0.622-0.24,0.929c-0.578,0.306-1.332,0.48-2.227,0.48
		c-2.533,0-4.029-1.584-4.029-3.647c0-3.014,2.041-4.171,4.334-4.171c0.764,0,1.725,0.229,2.228,0.536
		c-0.143,0.358-0.219,0.742-0.252,1.112h-0.153c-0.546-0.677-1.103-0.972-1.878-0.972c-1.167,0-2.489,1.016-2.489,3.33
		c0,2.25,1.332,3.134,2.588,3.134c0.699,0,1.507-0.327,1.977-0.819L54.202,98.591z"/>
	<path fill="#FFFFFF" d="M55.48,95.349c0-1.224-0.021-2.064-0.087-3.025c0.645,0.012,1.299,0.055,1.944,0.055
		c1.07,0,1.988-0.021,2.282-0.055c-0.022,0.133-0.044,0.263-0.044,0.46c0,0.229,0.022,0.326,0.044,0.49
		c-0.83-0.054-2.14-0.132-2.468-0.132c-0.054,0.798-0.054,1.584-0.054,2.381c0.951-0.021,1.648-0.044,2.478-0.087
		c-0.043,0.251-0.054,0.349-0.054,0.492c0,0.12,0.022,0.218,0.054,0.447c-0.83-0.066-1.648-0.098-2.478-0.098
		c0,0.457-0.012,0.927-0.012,1.396c0,0.459,0.012,0.928,0.034,1.363c0.818,0,1.659-0.041,2.5-0.14
		c-0.022,0.151-0.044,0.261-0.044,0.49c0,0.23,0.022,0.339,0.044,0.469c-0.393-0.009-0.906-0.054-1.912-0.054
		c-1.779,0-2.074,0.033-2.314,0.054c0.066-0.959,0.087-1.8,0.087-3.023V95.349z"/>
	<path fill="#FFFFFF" d="M61.083,92.323c0.164,0.034,0.328,0.054,0.491,0.054c0.164,0,0.328-0.02,0.492-0.054
		c1.573,1.737,3.133,3.461,4.739,5.199c0-1.738,0-4.707-0.077-5.199c0.164,0.034,0.327,0.054,0.49,0.054
		c0.165,0,0.328-0.02,0.492-0.054c-0.175,3.178-0.175,4.63-0.175,7.533c-0.153-0.031-0.294-0.054-0.447-0.054
		s-0.295,0.022-0.426,0.054c-1.495-1.769-3.089-3.537-4.771-5.306c-0.021,0.818-0.021,1.727-0.021,2.545
		c0,1.747,0.032,2.357,0.065,2.761c-0.175-0.031-0.35-0.054-0.514-0.054c-0.164,0-0.338,0.022-0.502,0.054
		c0.055-0.314,0.218-3.132,0.218-5.359C61.137,93.515,61.094,92.848,61.083,92.323"/>
	<path fill="#FFFFFF" d="M70.824,94.104c0-0.415,0-0.808-0.033-0.962c-0.425,0-1.343,0.066-1.998,0.144
		c0.032-0.164,0.055-0.317,0.055-0.479c0-0.166-0.023-0.317-0.055-0.482c0.994,0.033,1.485,0.055,2.839,0.055
		c1.354,0,1.846-0.021,2.773-0.055c-0.032,0.165-0.055,0.316-0.055,0.482c0,0.162,0.023,0.315,0.055,0.479
		c-0.589-0.077-1.506-0.144-1.943-0.144c-0.021,0.154-0.021,0.547-0.021,0.962v2.729c0,1.224,0.021,2.064,0.087,3.023
		c-0.24-0.021-0.535-0.054-0.896-0.054c-0.36,0-0.655,0.033-0.895,0.054c0.065-0.959,0.087-1.8,0.087-3.023V94.104z"/>
	<path fill="#FFFFFF" d="M75.509,95.349c0-1.224-0.022-2.064-0.087-3.025c0.645,0.012,1.299,0.055,1.944,0.055
		c1.07,0,1.987-0.021,2.282-0.055c-0.022,0.133-0.044,0.263-0.044,0.46c0,0.229,0.022,0.326,0.044,0.49
		c-0.831-0.054-2.141-0.132-2.469-0.132c-0.054,0.798-0.054,1.584-0.054,2.381c0.95-0.021,1.648-0.044,2.478-0.087
		c-0.042,0.251-0.054,0.349-0.054,0.492c0,0.12,0.021,0.218,0.054,0.447c-0.83-0.066-1.648-0.098-2.478-0.098
		c0,0.457-0.011,0.927-0.011,1.396c0,0.459,0.011,0.928,0.033,1.363c0.818,0,1.659-0.041,2.5-0.14
		c-0.022,0.151-0.044,0.261-0.044,0.49c0,0.23,0.022,0.339,0.044,0.469c-0.393-0.009-0.906-0.054-1.911-0.054
		c-1.779,0-2.075,0.033-2.315,0.054c0.065-0.959,0.087-1.8,0.087-3.023V95.349z"/>
	<path fill="#FFFFFF" d="M82.782,96.386h-0.099v0.447c0,1.224,0.022,2.064,0.087,3.023c-0.239-0.021-0.535-0.054-0.896-0.054
		c-0.36,0-0.655,0.033-0.895,0.054c0.064-0.959,0.087-1.8,0.087-3.023v-1.484c0-1.224-0.023-2.064-0.087-3.025
		c0.239,0.022,0.535,0.055,0.895,0.055c0.395,0,0.863-0.055,1.606-0.055c1.103,0,1.506,0.1,1.888,0.371
		c0.437,0.317,0.71,0.797,0.71,1.441c0,1.06-0.611,1.736-1.693,2.01c0.699,1.233,1.529,2.478,2.327,3.711
		c-0.328-0.021-0.656-0.054-0.983-0.054c-0.328,0-0.667,0.033-0.994,0.054L82.782,96.386z M82.716,92.946
		c-0.022,0.993-0.033,1.976-0.033,2.971c0.087,0.011,0.164,0.021,0.241,0.021c0.96,0,1.485-0.535,1.485-1.561
		C84.409,93.087,83.906,92.946,82.716,92.946"/>
	<path fill="#FFFFFF" d="M90.961,93.798c-0.229-0.622-0.655-0.938-1.322-0.938c-0.666,0-1.134,0.457-1.134,0.98
		c0,1.618,3.318,1.214,3.318,3.692c0,1.464-1.157,2.468-2.894,2.468c-0.786,0-1.441-0.229-1.758-0.469
		c0.143-0.504,0.241-0.896,0.317-1.388h0.208c0.12,0.634,0.622,1.179,1.507,1.179c0.851,0,1.277-0.501,1.277-1.114
		c0-1.648-3.254-1.21-3.254-3.689c0-1.506,1.157-2.337,2.458-2.337c0.785,0,1.375,0.208,1.79,0.535
		c-0.13,0.339-0.207,0.6-0.348,1.081H90.961z"/>
	<path fill="#FFFFFF" d="M96.138,95.349c0-1.224-0.022-2.064-0.087-3.025c0.645,0.012,1.299,0.055,1.944,0.055
		c1.07,0,1.987-0.021,2.282-0.055c-0.022,0.133-0.044,0.263-0.044,0.46c0,0.229,0.022,0.326,0.044,0.49
		c-0.831-0.054-2.141-0.132-2.469-0.132c-0.054,0.798-0.054,1.584-0.054,2.381c0.95-0.021,1.648-0.044,2.478-0.087
		c-0.042,0.251-0.054,0.349-0.054,0.492c0,0.12,0.021,0.218,0.054,0.447c-0.83-0.066-1.648-0.098-2.478-0.098v0.556
		c0,1.224,0.022,2.064,0.087,3.023c-0.241-0.021-0.536-0.054-0.896-0.054s-0.655,0.033-0.896,0.054
		c0.065-0.959,0.087-1.8,0.087-3.023V95.349z"/>
	<path fill="#FFFFFF" d="M105.3,92.182c2.314,0,4.138,1.267,4.138,3.897c0,2.162-1.737,3.921-4.171,3.921
		c-2.305,0-4.16-1.18-4.16-3.909C101.108,93.939,102.767,92.182,105.3,92.182 M105.268,92.805c-1.497,0-2.369,1.506-2.369,3.384
		c0,2.326,1.07,3.134,2.292,3.134c1.312,0,2.458-1.091,2.458-3.472C107.648,93.961,106.676,92.805,105.268,92.805"/>
	<path fill="#FFFFFF" d="M112.508,96.386h-0.099v0.447c0,1.224,0.023,2.064,0.087,3.023c-0.239-0.021-0.534-0.054-0.894-0.054
		s-0.655,0.033-0.895,0.054c0.065-0.959,0.087-1.8,0.087-3.023v-1.484c0-1.224-0.021-2.064-0.087-3.025
		c0.24,0.022,0.535,0.055,0.895,0.055c0.392,0,0.862-0.055,1.604-0.055c1.103,0,1.507,0.1,1.89,0.371
		c0.437,0.317,0.709,0.797,0.709,1.441c0,1.06-0.611,1.736-1.692,2.01c0.698,1.233,1.529,2.478,2.325,3.711
		c-0.328-0.021-0.655-0.054-0.982-0.054s-0.666,0.033-0.993,0.054L112.508,96.386z M112.442,92.946
		c-0.022,0.993-0.034,1.976-0.034,2.971c0.087,0.011,0.165,0.021,0.242,0.021c0.961,0,1.485-0.535,1.485-1.561
		C114.135,93.087,113.633,92.946,112.442,92.946"/>
	<path fill="#FFFFFF" d="M121.376,94.9c-0.23,1.648-0.327,3.309-0.437,4.956c-0.175-0.03-0.349-0.054-0.514-0.054
		c-0.175,0-0.338,0.023-0.513,0.054c0.458-2.509,0.819-5.021,1.125-7.533c0.152,0.033,0.294,0.055,0.447,0.055
		c0.141,0,0.294-0.021,0.437-0.055c0.798,1.736,1.725,3.681,2.522,5.219c0.862-1.625,1.758-3.482,2.545-5.219
		c0.152,0.033,0.316,0.055,0.468,0.055c0.154,0,0.307-0.021,0.459-0.055c0.284,2.512,0.665,5.993,0.938,7.533
		c-0.293-0.03-0.588-0.054-0.884-0.054c-0.295,0-0.601,0.023-0.905,0.054c-0.077-1.517-0.263-3.373-0.437-5.065h-0.022
		c-0.819,1.692-1.626,3.374-2.413,5.065c-0.066-0.01-0.143-0.021-0.207-0.021c-0.067,0-0.142,0.011-0.208,0.021
		c-0.777-1.647-1.562-3.308-2.38-4.956H121.376z"/>
	<path fill="#FFFFFF" d="M130.113,95.349c0-1.224-0.021-2.064-0.088-3.025c0.645,0.012,1.3,0.055,1.944,0.055
		c1.071,0,1.988-0.021,2.283-0.055c-0.022,0.133-0.044,0.263-0.044,0.46c0,0.229,0.022,0.326,0.044,0.49
		c-0.83-0.054-2.14-0.132-2.468-0.132c-0.055,0.798-0.055,1.584-0.055,2.381c0.951-0.021,1.649-0.044,2.479-0.087
		c-0.043,0.251-0.055,0.349-0.055,0.492c0,0.12,0.022,0.218,0.055,0.447c-0.83-0.066-1.649-0.098-2.479-0.098
		c0,0.457-0.01,0.927-0.01,1.396c0,0.459,0.01,0.928,0.032,1.363c0.82,0,1.66-0.041,2.501-0.14c-0.022,0.151-0.044,0.261-0.044,0.49
		c0,0.23,0.022,0.339,0.044,0.469c-0.394-0.009-0.907-0.054-1.912-0.054c-1.779,0-2.075,0.033-2.315,0.054
		c0.067-0.959,0.088-1.8,0.088-3.023V95.349z"/>
	<path fill="#FFFFFF" d="M135.671,95.349c0-1.224-0.021-2.063-0.087-3.025c0.24,0.021,0.536,0.055,0.896,0.055
		c0.479,0,1.014-0.055,1.975-0.055c2.491,0,4.205,0.798,4.205,3.548c0,2.402-1.726,3.986-3.778,3.986
		c-1.092,0-1.834-0.055-2.401-0.055c-0.36,0-0.656,0.033-0.896,0.055c0.065-0.96,0.087-1.801,0.087-3.023V95.349z M137.286,97.074
		c0,0.588,0,1.922,0.012,2.128c0.22,0.011,0.514,0.034,0.961,0.034c1.639,0,2.675-1.114,2.675-3.386c0-1.79-0.992-2.904-2.499-2.904
		c-0.524,0-0.798,0.021-1.137,0.055c-0.012,0.206-0.012,1.538-0.012,2.129V97.074z"/>
	<path fill="#FFFFFF" d="M144.21,95.349c0-1.224-0.021-2.064-0.087-3.025c0.24,0.022,0.535,0.055,0.896,0.055
		c0.36,0,0.655-0.032,0.895-0.055c-0.063,0.961-0.087,1.802-0.087,3.025v1.484c0,1.224,0.024,2.064,0.087,3.023
		c-0.24-0.021-0.535-0.054-0.895-0.054c-0.361,0-0.656,0.033-0.896,0.054c0.066-0.959,0.087-1.8,0.087-3.023V95.349z"/>
	<path fill="#FFFFFF" d="M153.711,98.591c-0.119,0.307-0.208,0.622-0.239,0.929c-0.58,0.306-1.333,0.48-2.229,0.48
		c-2.533,0-4.029-1.584-4.029-3.647c0-3.014,2.042-4.171,4.334-4.171c0.764,0,1.725,0.229,2.229,0.536
		c-0.143,0.358-0.22,0.742-0.253,1.112h-0.153c-0.546-0.677-1.103-0.972-1.877-0.972c-1.169,0-2.489,1.016-2.489,3.33
		c0,2.25,1.332,3.134,2.587,3.134c0.7,0,1.507-0.327,1.977-0.819L153.711,98.591z"/>
	<path fill="#FFFFFF" d="M160.983,99.857c-0.35-0.021-0.654-0.055-0.96-0.055c-0.307,0-0.623,0.033-0.928,0.055
		c-0.23-0.742-0.481-1.496-0.754-2.237c-0.47-0.012-0.928-0.022-1.398-0.022c-0.381,0-0.753,0.011-1.134,0.022
		c-0.295,0.741-0.536,1.483-0.745,2.237c-0.173-0.021-0.338-0.055-0.512-0.055c-0.176,0-0.337,0.033-0.546,0.055
		c0.535-1.212,2.173-5.099,3.112-7.588c0.141,0.021,0.272,0.054,0.415,0.054c0.142,0,0.274-0.032,0.416-0.054
		C158.876,94.759,160.153,98.078,160.983,99.857 M158.09,96.975c-0.316-0.884-0.622-1.745-0.971-2.599
		c-0.372,0.854-0.71,1.715-1.027,2.599H158.09z"/>
	<path fill="#FFFFFF" d="M163.825,96.386h-0.099v0.447c0,1.224,0.022,2.064,0.088,3.023c-0.241-0.021-0.534-0.054-0.896-0.054
		c-0.361,0-0.655,0.033-0.896,0.054c0.064-0.959,0.087-1.8,0.087-3.023v-1.484c0-1.224-0.023-2.064-0.087-3.025
		c0.24,0.022,0.534,0.055,0.896,0.055c0.393,0,0.862-0.055,1.605-0.055c1.103,0,1.506,0.1,1.889,0.371
		c0.437,0.317,0.71,0.797,0.71,1.441c0,1.06-0.612,1.736-1.693,2.01c0.699,1.233,1.528,2.478,2.325,3.711
		c-0.327-0.021-0.655-0.054-0.982-0.054s-0.667,0.033-0.993,0.054L163.825,96.386z M163.76,92.946
		c-0.023,0.993-0.034,1.976-0.034,2.971c0.088,0.011,0.164,0.021,0.239,0.021c0.962,0,1.486-0.535,1.486-1.561
		C165.452,93.087,164.95,92.946,163.76,92.946"/>
	<path fill="#FFFFFF" d="M168.685,95.349c0-1.224-0.023-2.064-0.087-3.025c0.643,0.012,1.299,0.055,1.943,0.055
		c1.071,0,1.988-0.021,2.281-0.055c-0.021,0.133-0.042,0.263-0.042,0.46c0,0.229,0.022,0.326,0.042,0.49
		c-0.829-0.054-2.139-0.132-2.466-0.132c-0.054,0.798-0.054,1.584-0.054,2.381c0.95-0.021,1.648-0.044,2.478-0.087
		c-0.044,0.251-0.055,0.349-0.055,0.492c0,0.12,0.022,0.218,0.055,0.447c-0.83-0.066-1.649-0.098-2.478-0.098
		c0,0.457-0.012,0.927-0.012,1.396c0,0.459,0.012,0.928,0.033,1.363c0.818,0,1.659-0.041,2.5-0.14
		c-0.021,0.151-0.042,0.261-0.042,0.49c0,0.23,0.022,0.339,0.042,0.469c-0.392-0.009-0.907-0.054-1.91-0.054
		c-1.779,0-2.075,0.033-2.314,0.054c0.064-0.959,0.087-1.8,0.087-3.023V95.349z"/>
	<path fill="#FFFFFF" d="M181.253,99.137c-0.654,0.535-1.594,0.863-2.445,0.863c-1.376,0-2.075-0.906-2.075-1.759
		c0-1.135,0.786-1.725,1.965-2.324c-0.469-0.634-0.796-1.203-0.796-1.792c0-1.266,1.048-1.747,2.008-1.747
		c1.016,0,1.77,0.46,1.77,1.332c0,0.709-0.437,1.268-1.398,1.857c0.557,0.731,1.135,1.408,1.725,2.096
		c0.372-0.447,0.852-1.169,1.299-2.107c0.197,0.229,0.406,0.448,0.602,0.634c-0.482,0.73-0.982,1.321-1.517,1.91
		c0.468,0.547,1.124,1.267,1.625,1.757c-0.536-0.009-0.938-0.054-1.343-0.054c-0.294,0-0.589,0.045-0.894,0.054L181.253,99.137z
		 M179.78,99.181c0.437,0,0.884-0.164,1.167-0.425c-0.655-0.798-1.31-1.605-1.932-2.414c-0.503,0.383-0.819,0.765-0.819,1.321
		C178.196,98.384,178.776,99.181,179.78,99.181 M179.987,95.173c0.36-0.272,0.872-0.83,0.872-1.507c0-0.479-0.38-0.797-0.774-0.797
		c-0.425,0-0.774,0.272-0.774,0.787C179.31,94.104,179.627,94.66,179.987,95.173"/>
	<path fill="#FFFFFF" d="M189.072,94.9c-0.229,1.648-0.326,3.309-0.437,4.956c-0.176-0.03-0.35-0.054-0.514-0.054
		c-0.174,0-0.338,0.023-0.513,0.054c0.459-2.509,0.82-5.021,1.125-7.533c0.153,0.033,0.295,0.055,0.447,0.055
		c0.143,0,0.295-0.021,0.438-0.055c0.797,1.736,1.726,3.681,2.521,5.219c0.863-1.625,1.758-3.482,2.545-5.219
		c0.153,0.033,0.315,0.055,0.468,0.055c0.154,0,0.306-0.021,0.46-0.055c0.283,2.512,0.665,5.993,0.938,7.533
		c-0.295-0.03-0.589-0.054-0.885-0.054c-0.295,0-0.6,0.023-0.906,0.054c-0.077-1.517-0.263-3.373-0.439-5.065h-0.021
		c-0.817,1.692-1.627,3.374-2.411,5.065c-0.066-0.01-0.143-0.021-0.208-0.021c-0.066,0-0.142,0.011-0.208,0.021
		c-0.776-1.647-1.561-3.308-2.38-4.956H189.072z"/>
	<path fill="#FFFFFF" d="M197.809,95.349c0-1.224-0.022-2.064-0.088-3.025c0.645,0.012,1.3,0.055,1.944,0.055
		c1.071,0,1.988-0.021,2.282-0.055c-0.021,0.133-0.042,0.263-0.042,0.46c0,0.229,0.021,0.326,0.042,0.49
		c-0.829-0.054-2.14-0.132-2.466-0.132c-0.055,0.798-0.055,1.584-0.055,2.381c0.95-0.021,1.649-0.044,2.479-0.087
		c-0.045,0.251-0.056,0.349-0.056,0.492c0,0.12,0.021,0.218,0.056,0.447c-0.83-0.066-1.649-0.098-2.479-0.098
		c0,0.457-0.012,0.927-0.012,1.396c0,0.459,0.012,0.928,0.035,1.363c0.817,0,1.658-0.041,2.499-0.14
		c-0.021,0.151-0.042,0.261-0.042,0.49c0,0.23,0.021,0.339,0.042,0.469c-0.393-0.009-0.904-0.054-1.911-0.054
		c-1.779,0-2.075,0.033-2.315,0.054c0.066-0.959,0.088-1.8,0.088-3.023V95.349z"/>
	<path fill="#FFFFFF" d="M203.369,95.349c0-1.224-0.022-2.063-0.089-3.025c0.24,0.021,0.536,0.055,0.896,0.055
		c0.481,0,1.016-0.055,1.978-0.055c2.487,0,4.203,0.798,4.203,3.548c0,2.402-1.726,3.986-3.778,3.986
		c-1.091,0-1.835-0.055-2.402-0.055c-0.359,0-0.655,0.033-0.896,0.055c0.066-0.96,0.089-1.801,0.089-3.023V95.349z M204.984,97.074
		c0,0.588,0,1.922,0.011,2.128c0.218,0.011,0.513,0.034,0.961,0.034c1.638,0,2.675-1.114,2.675-3.386
		c0-1.79-0.994-2.904-2.499-2.904c-0.525,0-0.799,0.021-1.137,0.055c-0.011,0.206-0.011,1.538-0.011,2.129V97.074z"/>
	<path fill="#FFFFFF" d="M211.908,95.349c0-1.224-0.021-2.064-0.088-3.025c0.241,0.022,0.535,0.055,0.897,0.055
		c0.358,0,0.653-0.032,0.894-0.055c-0.066,0.961-0.088,1.802-0.088,3.025v1.484c0,1.224,0.021,2.064,0.088,3.023
		c-0.24-0.021-0.535-0.054-0.894-0.054c-0.362,0-0.656,0.033-0.897,0.054c0.067-0.959,0.088-1.8,0.088-3.023V95.349z"/>
	<path fill="#FFFFFF" d="M221.408,98.591c-0.12,0.307-0.209,0.622-0.24,0.929c-0.579,0.306-1.332,0.48-2.228,0.48
		c-2.534,0-4.029-1.584-4.029-3.647c0-3.014,2.041-4.171,4.335-4.171c0.765,0,1.725,0.229,2.228,0.536
		c-0.143,0.358-0.22,0.742-0.251,1.112h-0.153c-0.546-0.677-1.103-0.972-1.878-0.972c-1.169,0-2.49,1.016-2.49,3.33
		c0,2.25,1.333,3.134,2.589,3.134c0.699,0,1.506-0.327,1.977-0.819L221.408,98.591z"/>
	<path fill="#FFFFFF" d="M228.679,99.857c-0.35-0.021-0.655-0.055-0.961-0.055s-0.623,0.033-0.927,0.055
		c-0.229-0.742-0.481-1.496-0.755-2.237c-0.469-0.012-0.926-0.022-1.397-0.022c-0.381,0-0.753,0.011-1.135,0.022
		c-0.294,0.741-0.534,1.483-0.743,2.237c-0.174-0.021-0.338-0.055-0.512-0.055c-0.175,0-0.34,0.033-0.546,0.055
		c0.534-1.212,2.171-5.099,3.111-7.588c0.142,0.021,0.272,0.054,0.414,0.054c0.143,0,0.272-0.032,0.415-0.054
		C226.571,94.759,227.85,98.078,228.679,99.857 M225.786,96.975c-0.316-0.884-0.622-1.745-0.971-2.599
		c-0.372,0.854-0.712,1.715-1.026,2.599H225.786z"/>
	<path fill="#FFFFFF" d="M229.849,95.349c0-1.224-0.021-2.064-0.088-3.025c0.239,0.022,0.535,0.055,0.896,0.055
		c0.359,0,0.654-0.032,0.895-0.055c-0.065,0.961-0.088,1.802-0.088,3.025v1.484c0,1.224,0.022,2.064,0.088,3.023
		c-0.24-0.021-0.535-0.054-0.895-0.054c-0.361,0-0.657,0.033-0.896,0.054c0.066-0.959,0.088-1.8,0.088-3.023V95.349z"/>
	<path fill="#FFFFFF" d="M233.441,95.349c0-1.224-0.021-2.063-0.088-3.025c0.24,0.021,0.536,0.055,0.896,0.055
		c0.481,0,1.016-0.055,1.978-0.055c2.49,0,4.204,0.798,4.204,3.548c0,2.402-1.726,3.986-3.777,3.986
		c-1.093,0-1.835-0.055-2.404-0.055c-0.359,0-0.655,0.033-0.896,0.055c0.067-0.96,0.088-1.801,0.088-3.023V95.349z M235.058,97.074
		c0,0.588,0,1.922,0.01,2.128c0.219,0.011,0.515,0.034,0.961,0.034c1.639,0,2.676-1.114,2.676-3.386c0-1.79-0.994-2.904-2.501-2.904
		c-0.524,0-0.796,0.021-1.136,0.055c-0.01,0.206-0.01,1.538-0.01,2.129V97.074z"/>
	<path fill="#FFFFFF" d="M248.194,93.798c-0.229-0.622-0.654-0.938-1.321-0.938c-0.666,0-1.135,0.457-1.135,0.98
		c0,1.618,3.319,1.214,3.319,3.692c0,1.464-1.157,2.468-2.893,2.468c-0.787,0-1.442-0.229-1.761-0.469
		c0.145-0.504,0.242-0.896,0.318-1.388h0.206c0.121,0.634,0.624,1.179,1.509,1.179c0.851,0,1.278-0.501,1.278-1.114
		c0-1.648-3.255-1.21-3.255-3.689c0-1.506,1.157-2.337,2.456-2.337c0.785,0,1.376,0.208,1.792,0.535
		c-0.132,0.339-0.209,0.6-0.35,1.081H248.194z"/>
	<path fill="#FFFFFF" d="M250.336,95.349c0-1.224-0.022-2.064-0.088-3.025c0.643,0.012,1.299,0.055,1.942,0.055
		c1.071,0,1.987-0.021,2.282-0.055c-0.021,0.133-0.042,0.263-0.042,0.46c0,0.229,0.021,0.326,0.042,0.49
		c-0.829-0.054-2.14-0.132-2.467-0.132c-0.055,0.798-0.055,1.584-0.055,2.381c0.949-0.021,1.648-0.044,2.479-0.087
		c-0.045,0.251-0.056,0.349-0.056,0.492c0,0.12,0.021,0.218,0.056,0.447c-0.831-0.066-1.649-0.098-2.479-0.098
		c0,0.457-0.011,0.927-0.011,1.396c0,0.459,0.011,0.928,0.033,1.363c0.817,0,1.658-0.041,2.499-0.14
		c-0.021,0.151-0.042,0.261-0.042,0.49c0,0.23,0.021,0.339,0.042,0.469c-0.393-0.009-0.906-0.054-1.911-0.054
		c-1.779,0-2.074,0.033-2.313,0.054c0.065-0.959,0.088-1.8,0.088-3.023V95.349z"/>
	<path fill="#FFFFFF" d="M257.609,96.386h-0.099v0.447c0,1.224,0.023,2.064,0.088,3.023c-0.24-0.021-0.534-0.054-0.896-0.054
		c-0.36,0-0.655,0.033-0.896,0.054c0.064-0.959,0.087-1.8,0.087-3.023v-1.484c0-1.224-0.022-2.064-0.087-3.025
		c0.24,0.022,0.535,0.055,0.896,0.055c0.393,0,0.861-0.055,1.605-0.055c1.101,0,1.505,0.1,1.888,0.371
		c0.437,0.317,0.711,0.797,0.711,1.441c0,1.06-0.613,1.736-1.692,2.01c0.698,1.233,1.528,2.478,2.324,3.711
		c-0.326-0.021-0.655-0.054-0.983-0.054c-0.327,0-0.665,0.033-0.992,0.054L257.609,96.386z M257.543,92.946
		c-0.023,0.993-0.033,1.976-0.033,2.971c0.088,0.011,0.163,0.021,0.239,0.021c0.962,0,1.485-0.535,1.485-1.561
		C259.235,93.087,258.733,92.946,257.543,92.946"/>
	<path fill="#FFFFFF" d="M267.578,92.323c0.155,0.034,0.318,0.054,0.48,0.054c0.164,0,0.329-0.02,0.48-0.054
		c-0.721,1.715-2.14,5.034-2.991,7.533c-0.163-0.021-0.316-0.054-0.48-0.054s-0.327,0.033-0.48,0.054
		c-0.678-1.866-2.249-5.863-2.958-7.533c0.338,0.034,0.665,0.054,0.982,0.054c0.315,0,0.643-0.02,0.96-0.054
		c0.492,1.628,1.277,3.659,1.944,5.48C266.268,95.982,267.01,94.016,267.578,92.323"/>
	<path fill="#FFFFFF" d="M269.699,95.349c0-1.224-0.022-2.064-0.09-3.025c0.241,0.022,0.536,0.055,0.896,0.055
		s0.654-0.032,0.896-0.055c-0.066,0.961-0.088,1.802-0.088,3.025v1.484c0,1.224,0.021,2.064,0.088,3.023
		c-0.241-0.021-0.535-0.054-0.896-0.054s-0.655,0.033-0.896,0.054c0.067-0.959,0.09-1.8,0.09-3.023V95.349z"/>
	<path fill="#FFFFFF" d="M279.197,98.591c-0.119,0.307-0.207,0.622-0.24,0.929c-0.579,0.306-1.332,0.48-2.228,0.48
		c-2.531,0-4.028-1.584-4.028-3.647c0-3.014,2.041-4.171,4.335-4.171c0.764,0,1.725,0.229,2.228,0.536
		c-0.143,0.358-0.219,0.742-0.252,1.112h-0.153c-0.544-0.677-1.102-0.972-1.877-0.972c-1.169,0-2.489,1.016-2.489,3.33
		c0,2.25,1.331,3.134,2.587,3.134c0.699,0,1.507-0.327,1.978-0.819L279.197,98.591z"/>
	<path fill="#FFFFFF" d="M280.476,95.349c0-1.224-0.022-2.064-0.088-3.025c0.643,0.012,1.301,0.055,1.943,0.055
		c1.071,0,1.987-0.021,2.282-0.055c-0.021,0.133-0.044,0.263-0.044,0.46c0,0.229,0.022,0.326,0.044,0.49
		c-0.829-0.054-2.14-0.132-2.468-0.132c-0.054,0.798-0.054,1.584-0.054,2.381c0.949-0.021,1.649-0.044,2.478-0.087
		c-0.044,0.251-0.054,0.349-0.054,0.492c0,0.12,0.021,0.218,0.054,0.447c-0.828-0.066-1.648-0.098-2.478-0.098
		c0,0.457-0.011,0.927-0.011,1.396c0,0.459,0.011,0.928,0.031,1.363c0.818,0,1.66-0.041,2.501-0.14
		c-0.021,0.151-0.044,0.261-0.044,0.49c0,0.23,0.022,0.339,0.044,0.469c-0.393-0.009-0.905-0.054-1.911-0.054
		c-1.779,0-2.074,0.033-2.314,0.054c0.065-0.959,0.088-1.8,0.088-3.023V95.349z"/>
	<path fill="#FFFFFF" d="M289.256,93.798c-0.229-0.622-0.656-0.938-1.322-0.938s-1.135,0.457-1.135,0.98
		c0,1.618,3.319,1.214,3.319,3.692c0,1.464-1.158,2.468-2.894,2.468c-0.787,0-1.442-0.229-1.758-0.469
		c0.142-0.504,0.238-0.896,0.315-1.388h0.207c0.121,0.634,0.623,1.179,1.509,1.179c0.85,0,1.276-0.501,1.276-1.114
		c0-1.648-3.253-1.21-3.253-3.689c0-1.506,1.157-2.337,2.456-2.337c0.785,0,1.377,0.208,1.791,0.535
		c-0.131,0.339-0.208,0.6-0.351,1.081H289.256z"/>
</g>
</svg>
