<?xml version="1.0" encoding="utf-8"?>
<!-- Generator: Adobe Illustrator 16.0.5, SVG Export Plug-In . SVG Version: 6.00 Build 0)  -->
<!DOCTYPE svg PUBLIC "-//W3C//DTD SVG 1.1//EN" "http://www.w3.org/Graphics/SVG/1.1/DTD/svg11.dtd">
<svg version="1.1" id="Layer_1" xmlns="http://www.w3.org/2000/svg" xmlns:xlink="http://www.w3.org/1999/xlink" x="0px" y="0px"
	 width="208.885px" height="72px" viewBox="0 0 208.885 72" enable-background="new 0 0 208.885 72" xml:space="preserve">
<g>
	<path fill-rule="evenodd" clip-rule="evenodd" d="M25.53,66.06c-9.977-4.692-15.612-10.813-15.292-17.938
		C11.142,28.16,58.457,7.673,115.574,2.526c17.187-1.55,33.351-1.537,47.534-0.221c-16.297-2.366-35.964-2.834-57.192-0.922
		C48.806,6.534,1.489,27.018,0.586,46.978c-0.443,9.801,10.38,17.701,28.271,22.595L25.53,66.06z"/>
</g>
<g>
	<path d="M22.227,59.394c-2.984-3.027-4.416-6.318-4.259-9.813c0.834-18.407,44.641-37.271,97.652-42.05
		c8.113-0.732,16.164-1.104,23.93-1.104c14.49,0,28.068,1.31,39.27,3.786l0.184-0.764c-11.89-3.099-26.77-4.737-43.025-4.737
		c-7.699,0-15.682,0.368-23.724,1.093c-52.742,4.755-96.333,23.722-97.173,42.28c-0.228,5.087,2.667,9.69,8.598,13.679
		L22.227,59.394z"/>
	<path d="M68.41,61.215c-14.992,0-27.039-6.972-27.039-17.38c0-10.459,12.047-17.33,27.039-17.33c7.137,0,13.684,1.819,18.463,4.698
		l-5.958,4.244c-2.619-1.616-6.612-3.436-11.458-3.436c-6.939,0-11.391,3.537-11.391,11.823c0,8.185,4.452,11.721,11.391,11.721
		c4.846,0,8.839-1.717,11.458-3.334l5.958,4.244C82.094,59.396,75.547,61.215,68.41,61.215"/>
	<polygon points="136.067,60.155 136.067,39.792 124.477,60.155 114.351,60.155 101.161,39.792 101.161,60.155 91.103,60.155 
		91.103,27.566 110.621,27.566 123.211,47.17 134.468,27.566 151.654,27.566 151.654,60.155 	"/>
	<path d="M178.608,61.215c-11.326,0-18.462-3.84-21.212-6.417l6.089-3.941c3.012,2.376,9.428,5.154,15.124,5.154
		c5.042,0,7.529-0.908,7.529-2.476c0-2.88-5.956-3.586-12.047-4.9c-9.034-1.971-15.777-4.396-15.777-10.61
		c0-7.68,9.231-11.47,20.884-11.47c8.447,0,14.142,1.668,18.986,5.104l-5.892,3.739c-3.469-2.426-9.559-3.739-12.898-3.739
		c-5.368,0-7.464,1.163-7.464,2.678c0,2.374,4.715,2.626,12.246,4.294c9.361,2.072,16.366,5.001,16.366,11.318
		C200.541,56.819,192.225,61.215,178.608,61.215"/>
	<path d="M39.598,71.183c-0.087,0.221-0.149,0.448-0.173,0.668c-0.416,0.221-0.959,0.347-1.604,0.347c-1.824,0-2.9-1.141-2.9-2.626
		c0-2.169,1.469-3.003,3.12-3.003c0.55,0,1.242,0.165,1.604,0.385c-0.102,0.259-0.157,0.535-0.182,0.802h-0.109
		c-0.394-0.488-0.794-0.7-1.353-0.7c-0.841,0-1.792,0.731-1.792,2.397c0,1.62,0.959,2.257,1.864,2.257
		c0.503,0,1.085-0.236,1.423-0.59L39.598,71.183z"/>
	<path d="M40.519,68.849c0-0.881-0.016-1.486-0.063-2.178c0.464,0.009,0.936,0.039,1.4,0.039c0.77,0,1.431-0.015,1.643-0.039
		c-0.016,0.095-0.031,0.188-0.031,0.331c0,0.165,0.015,0.235,0.031,0.353c-0.598-0.039-1.541-0.094-1.777-0.094
		c-0.039,0.575-0.039,1.14-0.039,1.714c0.684-0.016,1.187-0.032,1.784-0.063c-0.032,0.182-0.039,0.252-0.039,0.354
		c0,0.087,0.016,0.158,0.039,0.323c-0.598-0.048-1.187-0.07-1.784-0.07c0,0.329-0.009,0.667-0.009,1.005
		c0,0.33,0.009,0.668,0.024,0.981c0.59,0,1.195-0.03,1.8-0.101c-0.016,0.109-0.031,0.188-0.031,0.353
		c0,0.167,0.015,0.245,0.031,0.338c-0.283-0.007-0.653-0.04-1.376-0.04c-1.281,0-1.493,0.024-1.666,0.04
		c0.047-0.691,0.063-1.296,0.063-2.178V68.849z"/>
	<path d="M44.553,66.67c0.118,0.024,0.236,0.039,0.354,0.039c0.118,0,0.236-0.015,0.354-0.039c1.133,1.251,2.256,2.492,3.413,3.743
		c0-1.251,0-3.389-0.055-3.743c0.118,0.024,0.235,0.039,0.353,0.039c0.118,0,0.236-0.015,0.354-0.039
		c-0.126,2.288-0.126,3.333-0.126,5.424c-0.11-0.023-0.212-0.04-0.322-0.04c-0.11,0-0.212,0.017-0.307,0.04
		c-1.077-1.274-2.225-2.547-3.436-3.82c-0.015,0.589-0.015,1.243-0.015,1.832c0,1.258,0.023,1.698,0.046,1.988
		c-0.125-0.023-0.251-0.04-0.369-0.04c-0.118,0-0.244,0.017-0.361,0.04c0.039-0.228,0.157-2.256,0.157-3.859
		C44.592,67.528,44.561,67.047,44.553,66.67"/>
	<path d="M51.566,67.952c0-0.299,0-0.582-0.023-0.692c-0.307,0-0.967,0.047-1.439,0.103c0.023-0.118,0.04-0.229,0.04-0.345
		c0-0.119-0.016-0.229-0.04-0.347c0.716,0.023,1.07,0.039,2.044,0.039c0.975,0,1.329-0.016,1.997-0.039
		c-0.023,0.118-0.04,0.228-0.04,0.347c0,0.117,0.017,0.227,0.04,0.345c-0.425-0.056-1.085-0.103-1.4-0.103
		c-0.016,0.111-0.016,0.394-0.016,0.692v1.965c0,0.881,0.016,1.487,0.063,2.178c-0.173-0.015-0.385-0.039-0.645-0.039
		s-0.472,0.024-0.645,0.039c0.047-0.691,0.063-1.296,0.063-2.178V67.952z"/>
	<path d="M54.939,68.849c0-0.881-0.016-1.486-0.063-2.178c0.464,0.009,0.935,0.039,1.4,0.039c0.77,0,1.43-0.015,1.643-0.039
		c-0.017,0.095-0.032,0.188-0.032,0.331c0,0.165,0.016,0.235,0.032,0.353c-0.598-0.039-1.542-0.094-1.778-0.094
		c-0.038,0.575-0.038,1.14-0.038,1.714c0.684-0.016,1.187-0.032,1.784-0.063c-0.03,0.182-0.039,0.252-0.039,0.354
		c0,0.087,0.015,0.158,0.039,0.323c-0.597-0.048-1.187-0.07-1.784-0.07c0,0.329-0.008,0.667-0.008,1.005
		c0,0.33,0.008,0.668,0.023,0.981c0.59,0,1.194-0.03,1.801-0.101c-0.017,0.109-0.032,0.188-0.032,0.353
		c0,0.167,0.016,0.245,0.032,0.338c-0.283-0.007-0.653-0.04-1.376-0.04c-1.281,0-1.494,0.024-1.667,0.04
		c0.047-0.691,0.063-1.296,0.063-2.178V68.849z"/>
	<path d="M60.176,69.596h-0.071v0.321c0,0.881,0.016,1.487,0.063,2.178c-0.172-0.015-0.385-0.04-0.645-0.04
		c-0.259,0-0.472,0.024-0.644,0.04c0.047-0.691,0.063-1.296,0.063-2.178v-1.068c0-0.881-0.017-1.486-0.063-2.178
		c0.172,0.016,0.385,0.039,0.644,0.039c0.284,0,0.621-0.039,1.156-0.039c0.794,0,1.085,0.071,1.36,0.267
		c0.314,0.229,0.511,0.574,0.511,1.038c0,0.763-0.44,1.25-1.218,1.448c0.503,0.888,1.1,1.784,1.675,2.672
		c-0.236-0.015-0.472-0.04-0.708-0.04c-0.236,0-0.48,0.024-0.716,0.04L60.176,69.596z M60.129,67.119
		c-0.016,0.715-0.024,1.422-0.024,2.139c0.063,0.007,0.118,0.014,0.174,0.014c0.691,0,1.069-0.384,1.069-1.124
		C61.348,67.22,60.985,67.119,60.129,67.119"/>
	<path d="M66.065,67.732c-0.165-0.448-0.472-0.676-0.952-0.676c-0.479,0-0.817,0.329-0.817,0.706c0,1.165,2.39,0.875,2.39,2.658
		c0,1.055-0.833,1.777-2.083,1.777c-0.566,0-1.037-0.165-1.266-0.338c0.103-0.362,0.174-0.645,0.229-0.999h0.149
		c0.086,0.456,0.448,0.849,1.085,0.849c0.612,0,0.919-0.361,0.919-0.803c0-1.187-2.343-0.871-2.343-2.657
		c0-1.084,0.833-1.682,1.769-1.682c0.565,0,0.99,0.149,1.289,0.385c-0.094,0.244-0.149,0.432-0.25,0.778H66.065z"/>
	<path d="M69.793,68.849c0-0.881-0.016-1.486-0.063-2.178c0.464,0.009,0.936,0.039,1.4,0.039c0.77,0,1.431-0.015,1.643-0.039
		c-0.016,0.095-0.032,0.188-0.032,0.331c0,0.165,0.016,0.235,0.032,0.353c-0.598-0.039-1.542-0.094-1.777-0.094
		c-0.039,0.575-0.039,1.14-0.039,1.714c0.684-0.016,1.187-0.032,1.784-0.063c-0.031,0.182-0.039,0.252-0.039,0.354
		c0,0.087,0.015,0.158,0.039,0.323c-0.598-0.048-1.187-0.07-1.784-0.07v0.399c0,0.881,0.016,1.487,0.063,2.178
		c-0.173-0.015-0.386-0.04-0.645-0.04c-0.259,0-0.472,0.024-0.645,0.04c0.047-0.691,0.063-1.296,0.063-2.178V68.849z"/>
	<path d="M76.39,66.568c1.666,0,2.979,0.912,2.979,2.806c0,1.557-1.25,2.823-3.003,2.823c-1.659,0-2.995-0.85-2.995-2.815
		C73.371,67.834,74.565,66.568,76.39,66.568 M76.366,67.017c-1.078,0-1.706,1.084-1.706,2.436c0,1.675,0.771,2.257,1.65,2.257
		c0.944,0,1.77-0.786,1.77-2.5C78.08,67.849,77.379,67.017,76.366,67.017"/>
	<path d="M81.579,69.596h-0.071v0.321c0,0.881,0.017,1.487,0.063,2.178c-0.172-0.015-0.384-0.04-0.644-0.04
		c-0.259,0-0.472,0.024-0.645,0.04c0.047-0.691,0.063-1.296,0.063-2.178v-1.068c0-0.881-0.016-1.486-0.063-2.178
		c0.173,0.016,0.386,0.039,0.645,0.039c0.282,0,0.621-0.039,1.155-0.039c0.794,0,1.085,0.071,1.36,0.267
		c0.315,0.229,0.511,0.574,0.511,1.038c0,0.763-0.44,1.25-1.218,1.448c0.502,0.888,1.101,1.784,1.674,2.672
		c-0.236-0.015-0.472-0.04-0.708-0.04c-0.235,0-0.479,0.024-0.714,0.04L81.579,69.596z M81.532,67.119
		c-0.016,0.715-0.024,1.422-0.024,2.139c0.063,0.007,0.119,0.014,0.174,0.014c0.691,0,1.069-0.384,1.069-1.124
		C82.75,67.22,82.389,67.119,81.532,67.119"/>
	<path d="M87.964,68.526c-0.166,1.187-0.236,2.382-0.315,3.569c-0.125-0.022-0.251-0.039-0.37-0.039
		c-0.125,0-0.244,0.017-0.37,0.039c0.33-1.807,0.59-3.616,0.811-5.424c0.109,0.023,0.212,0.039,0.322,0.039
		c0.102,0,0.211-0.016,0.314-0.039c0.575,1.25,1.242,2.65,1.816,3.757c0.621-1.169,1.266-2.507,1.832-3.757
		c0.11,0.023,0.228,0.039,0.337,0.039c0.111,0,0.221-0.016,0.331-0.039c0.204,1.808,0.479,4.315,0.675,5.424
		c-0.211-0.022-0.423-0.039-0.636-0.039c-0.212,0-0.433,0.017-0.651,0.039c-0.056-1.093-0.189-2.429-0.315-3.647h-0.016
		c-0.589,1.218-1.171,2.429-1.737,3.647c-0.048-0.007-0.103-0.015-0.149-0.015c-0.048,0-0.102,0.008-0.15,0.015
		c-0.559-1.187-1.124-2.382-1.714-3.569H87.964z"/>
	<path d="M94.254,68.849c0-0.881-0.016-1.486-0.063-2.178c0.464,0.009,0.936,0.039,1.399,0.039c0.771,0,1.432-0.015,1.644-0.039
		c-0.016,0.095-0.031,0.188-0.031,0.331c0,0.165,0.016,0.235,0.031,0.353c-0.597-0.039-1.541-0.094-1.777-0.094
		c-0.04,0.575-0.04,1.14-0.04,1.714c0.685-0.016,1.188-0.032,1.785-0.063c-0.032,0.182-0.04,0.252-0.04,0.354
		c0,0.087,0.016,0.158,0.04,0.323c-0.598-0.048-1.188-0.07-1.785-0.07c0,0.329-0.007,0.667-0.007,1.005
		c0,0.33,0.007,0.668,0.023,0.981c0.59,0,1.194-0.03,1.8-0.101c-0.016,0.109-0.031,0.188-0.031,0.353
		c0,0.167,0.016,0.245,0.031,0.338c-0.284-0.007-0.653-0.04-1.376-0.04c-1.281,0-1.494,0.024-1.667,0.04
		c0.048-0.691,0.063-1.296,0.063-2.178V68.849z"/>
	<path d="M98.256,68.848c0-0.881-0.016-1.485-0.063-2.178c0.173,0.016,0.385,0.04,0.645,0.04c0.345,0,0.73-0.04,1.421-0.04
		c1.793,0,3.027,0.574,3.027,2.554c0,1.73-1.243,2.87-2.72,2.87c-0.786,0-1.321-0.04-1.729-0.04c-0.26,0-0.472,0.024-0.645,0.04
		c0.047-0.691,0.063-1.297,0.063-2.177V68.848z M99.419,70.091c0,0.423,0,1.384,0.009,1.532c0.158,0.008,0.37,0.024,0.691,0.024
		c1.18,0,1.926-0.802,1.926-2.438c0-1.289-0.714-2.091-1.799-2.091c-0.378,0-0.575,0.015-0.818,0.04
		c-0.009,0.149-0.009,1.108-0.009,1.533V70.091z"/>
	<path d="M104.405,68.849c0-0.881-0.015-1.486-0.063-2.178c0.173,0.016,0.384,0.039,0.645,0.039c0.259,0,0.472-0.023,0.645-0.039
		c-0.045,0.692-0.063,1.297-0.063,2.178v1.068c0,0.881,0.017,1.487,0.063,2.178c-0.173-0.015-0.385-0.04-0.645-0.04
		c-0.26,0-0.472,0.024-0.645,0.04c0.047-0.691,0.063-1.296,0.063-2.178V68.849z"/>
	<path d="M111.245,71.183c-0.085,0.221-0.15,0.448-0.172,0.668c-0.417,0.221-0.96,0.347-1.604,0.347c-1.824,0-2.9-1.141-2.9-2.626
		c0-2.169,1.47-3.003,3.121-3.003c0.549,0,1.242,0.165,1.604,0.385c-0.103,0.259-0.159,0.535-0.182,0.802h-0.11
		c-0.393-0.488-0.794-0.7-1.352-0.7c-0.842,0-1.792,0.731-1.792,2.397c0,1.62,0.959,2.257,1.863,2.257
		c0.503,0,1.085-0.236,1.423-0.59L111.245,71.183z"/>
	<path d="M116.481,72.095c-0.252-0.016-0.471-0.04-0.691-0.04c-0.221,0-0.448,0.024-0.668,0.04
		c-0.166-0.534-0.347-1.077-0.542-1.611c-0.338-0.008-0.668-0.016-1.007-0.016c-0.274,0-0.542,0.008-0.816,0.016
		c-0.213,0.534-0.386,1.068-0.536,1.611c-0.125-0.016-0.243-0.04-0.369-0.04c-0.126,0-0.243,0.024-0.393,0.04
		c0.384-0.873,1.564-3.67,2.24-5.463c0.102,0.016,0.196,0.039,0.299,0.039c0.102,0,0.197-0.023,0.3-0.039
		C114.964,68.424,115.884,70.814,116.481,72.095 M114.398,70.02c-0.228-0.637-0.448-1.257-0.7-1.871
		c-0.268,0.614-0.511,1.234-0.739,1.871H114.398z"/>
	<path d="M118.527,69.596h-0.071v0.321c0,0.881,0.016,1.487,0.063,2.178c-0.173-0.015-0.384-0.04-0.645-0.04
		c-0.261,0-0.472,0.024-0.645,0.04c0.046-0.691,0.063-1.296,0.063-2.178v-1.068c0-0.881-0.017-1.486-0.063-2.178
		c0.173,0.016,0.384,0.039,0.645,0.039c0.283,0,0.621-0.039,1.156-0.039c0.794,0,1.084,0.071,1.359,0.267
		c0.314,0.229,0.512,0.574,0.512,1.038c0,0.763-0.441,1.25-1.219,1.448c0.503,0.888,1.101,1.784,1.674,2.672
		c-0.235-0.015-0.471-0.04-0.707-0.04c-0.236,0-0.48,0.024-0.715,0.04L118.527,69.596z M118.48,67.119
		c-0.017,0.715-0.024,1.422-0.024,2.139c0.063,0.007,0.118,0.014,0.172,0.014c0.693,0,1.07-0.384,1.07-1.124
		C119.699,67.22,119.337,67.119,118.48,67.119"/>
	<path d="M122.027,68.849c0-0.881-0.017-1.486-0.063-2.178c0.462,0.009,0.935,0.039,1.399,0.039c0.771,0,1.431-0.015,1.642-0.039
		c-0.014,0.095-0.03,0.188-0.03,0.331c0,0.165,0.016,0.235,0.03,0.353c-0.597-0.039-1.54-0.094-1.776-0.094
		c-0.039,0.575-0.039,1.14-0.039,1.714c0.684-0.016,1.187-0.032,1.784-0.063c-0.032,0.182-0.04,0.252-0.04,0.354
		c0,0.087,0.016,0.158,0.04,0.323c-0.598-0.048-1.188-0.07-1.784-0.07c0,0.329-0.008,0.667-0.008,1.005
		c0,0.33,0.008,0.668,0.023,0.981c0.589,0,1.194-0.03,1.799-0.101c-0.014,0.109-0.03,0.188-0.03,0.353
		c0,0.167,0.016,0.245,0.03,0.338c-0.282-0.007-0.652-0.04-1.375-0.04c-1.281,0-1.494,0.024-1.666,0.04
		c0.046-0.691,0.063-1.296,0.063-2.178V68.849z"/>
	<path d="M131.075,71.576c-0.47,0.385-1.147,0.622-1.76,0.622c-0.991,0-1.494-0.653-1.494-1.266c0-0.817,0.565-1.242,1.415-1.674
		c-0.338-0.456-0.573-0.866-0.573-1.291c0-0.912,0.755-1.258,1.446-1.258c0.731,0,1.274,0.331,1.274,0.959
		c0,0.511-0.314,0.913-1.007,1.337c0.401,0.527,0.817,1.014,1.242,1.509c0.268-0.322,0.613-0.842,0.936-1.518
		c0.142,0.165,0.292,0.323,0.434,0.456c-0.347,0.526-0.708,0.952-1.093,1.375c0.337,0.394,0.81,0.912,1.17,1.266
		c-0.386-0.007-0.675-0.04-0.966-0.04c-0.212,0-0.425,0.033-0.644,0.04L131.075,71.576z M130.015,71.608
		c0.315,0,0.637-0.118,0.841-0.306c-0.472-0.575-0.943-1.156-1.392-1.738c-0.362,0.275-0.589,0.551-0.589,0.952
		C128.875,71.034,129.292,71.608,130.015,71.608 M130.164,68.722c0.26-0.196,0.628-0.598,0.628-1.085
		c0-0.345-0.273-0.574-0.557-0.574c-0.307,0-0.558,0.196-0.558,0.566C129.677,67.952,129.905,68.353,130.164,68.722"/>
	<path d="M136.706,68.526c-0.165,1.187-0.235,2.382-0.314,3.569c-0.127-0.022-0.252-0.039-0.37-0.039
		c-0.125,0-0.244,0.017-0.369,0.039c0.331-1.807,0.59-3.616,0.811-5.424c0.109,0.023,0.212,0.039,0.322,0.039
		c0.103,0,0.212-0.016,0.315-0.039c0.573,1.25,1.242,2.65,1.814,3.757c0.622-1.169,1.266-2.507,1.833-3.757
		c0.109,0.023,0.227,0.039,0.337,0.039c0.111,0,0.22-0.016,0.332-0.039c0.204,1.808,0.479,4.315,0.675,5.424
		c-0.212-0.022-0.424-0.039-0.637-0.039s-0.432,0.017-0.652,0.039c-0.055-1.093-0.189-2.429-0.316-3.647h-0.015
		c-0.589,1.218-1.172,2.429-1.736,3.647c-0.047-0.007-0.103-0.015-0.15-0.015c-0.048,0-0.102,0.008-0.149,0.015
		c-0.559-1.187-1.125-2.382-1.714-3.569H136.706z"/>
	<path d="M142.996,68.849c0-0.881-0.016-1.486-0.063-2.178c0.465,0.009,0.937,0.039,1.399,0.039c0.772,0,1.432-0.015,1.644-0.039
		c-0.016,0.095-0.03,0.188-0.03,0.331c0,0.165,0.015,0.235,0.03,0.353c-0.597-0.039-1.541-0.094-1.775-0.094
		c-0.04,0.575-0.04,1.14-0.04,1.714c0.684-0.016,1.188-0.032,1.785-0.063c-0.032,0.182-0.04,0.252-0.04,0.354
		c0,0.087,0.015,0.158,0.04,0.323c-0.598-0.048-1.188-0.07-1.785-0.07c0,0.329-0.009,0.667-0.009,1.005
		c0,0.33,0.009,0.668,0.025,0.981c0.588,0,1.194-0.03,1.799-0.101c-0.016,0.109-0.03,0.188-0.03,0.353
		c0,0.167,0.015,0.245,0.03,0.338c-0.283-0.007-0.651-0.04-1.376-0.04c-1.281,0-1.494,0.024-1.667,0.04
		c0.048-0.691,0.063-1.296,0.063-2.178V68.849z"/>
	<path d="M146.999,68.848c0-0.881-0.016-1.485-0.063-2.178c0.173,0.016,0.386,0.04,0.645,0.04c0.347,0,0.731-0.04,1.424-0.04
		c1.791,0,3.026,0.574,3.026,2.554c0,1.73-1.242,2.87-2.721,2.87c-0.785,0-1.321-0.04-1.729-0.04c-0.258,0-0.472,0.024-0.645,0.04
		c0.048-0.691,0.063-1.297,0.063-2.177V68.848z M148.162,70.091c0,0.423,0,1.384,0.008,1.532c0.157,0.008,0.369,0.024,0.692,0.024
		c1.179,0,1.926-0.802,1.926-2.438c0-1.289-0.716-2.091-1.8-2.091c-0.378,0-0.575,0.015-0.818,0.04
		c-0.008,0.149-0.008,1.108-0.008,1.533V70.091z"/>
	<path d="M153.147,68.849c0-0.881-0.015-1.486-0.063-2.178c0.173,0.016,0.385,0.039,0.646,0.039c0.258,0,0.47-0.023,0.644-0.039
		c-0.048,0.692-0.063,1.297-0.063,2.178v1.068c0,0.881,0.016,1.487,0.063,2.178c-0.173-0.015-0.385-0.04-0.644-0.04
		c-0.261,0-0.473,0.024-0.646,0.04c0.048-0.691,0.063-1.296,0.063-2.178V68.849z"/>
	<path d="M159.987,71.183c-0.086,0.221-0.15,0.448-0.173,0.668c-0.417,0.221-0.959,0.347-1.604,0.347
		c-1.824,0-2.901-1.141-2.901-2.626c0-2.169,1.469-3.003,3.121-3.003c0.551,0,1.242,0.165,1.604,0.385
		c-0.103,0.259-0.158,0.535-0.181,0.802h-0.11c-0.393-0.488-0.794-0.7-1.353-0.7c-0.841,0-1.792,0.731-1.792,2.397
		c0,1.62,0.96,2.257,1.864,2.257c0.503,0,1.083-0.236,1.423-0.59L159.987,71.183z"/>
	<path d="M165.223,72.095c-0.252-0.016-0.472-0.04-0.692-0.04c-0.22,0-0.448,0.024-0.667,0.04c-0.165-0.534-0.346-1.077-0.543-1.611
		c-0.337-0.008-0.667-0.016-1.006-0.016c-0.274,0-0.542,0.008-0.817,0.016c-0.211,0.534-0.384,1.068-0.535,1.611
		c-0.125-0.016-0.243-0.04-0.368-0.04c-0.126,0-0.245,0.024-0.393,0.04c0.385-0.873,1.563-3.67,2.24-5.463
		c0.102,0.016,0.196,0.039,0.298,0.039s0.196-0.023,0.298-0.039C163.705,68.424,164.625,70.814,165.223,72.095 M163.139,70.02
		c-0.228-0.637-0.448-1.257-0.699-1.871c-0.268,0.614-0.513,1.234-0.739,1.871H163.139z"/>
	<path d="M166.065,68.849c0-0.881-0.016-1.486-0.063-2.178c0.172,0.016,0.386,0.039,0.646,0.039c0.258,0,0.471-0.023,0.644-0.039
		c-0.047,0.692-0.063,1.297-0.063,2.178v1.068c0,0.881,0.016,1.487,0.063,2.178c-0.173-0.015-0.385-0.04-0.644-0.04
		c-0.26,0-0.474,0.024-0.646,0.04c0.048-0.691,0.063-1.296,0.063-2.178V68.849z"/>
	<path d="M168.651,68.848c0-0.881-0.015-1.485-0.063-2.178c0.173,0.016,0.386,0.04,0.645,0.04c0.346,0,0.73-0.04,1.424-0.04
		c1.792,0,3.027,0.574,3.027,2.554c0,1.73-1.243,2.87-2.72,2.87c-0.787,0-1.321-0.04-1.73-0.04c-0.259,0-0.472,0.024-0.645,0.04
		c0.048-0.691,0.063-1.297,0.063-2.177V68.848z M169.815,70.091c0,0.423,0,1.384,0.007,1.532c0.158,0.008,0.371,0.024,0.692,0.024
		c1.18,0,1.927-0.802,1.927-2.438c0-1.289-0.716-2.091-1.801-2.091c-0.377,0-0.573,0.015-0.818,0.04
		c-0.007,0.149-0.007,1.108-0.007,1.533V70.091z"/>
	<path d="M179.273,67.732c-0.165-0.448-0.471-0.676-0.952-0.676c-0.479,0-0.817,0.329-0.817,0.706c0,1.165,2.39,0.875,2.39,2.658
		c0,1.055-0.833,1.777-2.083,1.777c-0.566,0-1.039-0.165-1.268-0.338c0.104-0.362,0.174-0.645,0.229-0.999h0.148
		c0.087,0.456,0.449,0.849,1.086,0.849c0.612,0,0.92-0.361,0.92-0.803c0-1.187-2.344-0.871-2.344-2.657
		c0-1.084,0.833-1.682,1.769-1.682c0.565,0,0.991,0.149,1.291,0.385c-0.095,0.244-0.151,0.432-0.252,0.778H179.273z"/>
	<path d="M180.815,68.849c0-0.881-0.016-1.486-0.063-2.178c0.463,0.009,0.936,0.039,1.398,0.039c0.771,0,1.431-0.015,1.644-0.039
		c-0.016,0.095-0.031,0.188-0.031,0.331c0,0.165,0.015,0.235,0.031,0.353c-0.597-0.039-1.541-0.094-1.776-0.094
		c-0.04,0.575-0.04,1.14-0.04,1.714c0.684-0.016,1.187-0.032,1.785-0.063c-0.032,0.182-0.04,0.252-0.04,0.354
		c0,0.087,0.016,0.158,0.04,0.323c-0.598-0.048-1.187-0.07-1.785-0.07c0,0.329-0.008,0.667-0.008,1.005
		c0,0.33,0.008,0.668,0.024,0.981c0.588,0,1.194-0.03,1.799-0.101c-0.016,0.109-0.031,0.188-0.031,0.353
		c0,0.167,0.015,0.245,0.031,0.338c-0.283-0.007-0.653-0.04-1.376-0.04c-1.281,0-1.493,0.024-1.666,0.04
		c0.047-0.691,0.063-1.296,0.063-2.178V68.849z"/>
	<path d="M186.052,69.596h-0.071v0.321c0,0.881,0.017,1.487,0.063,2.178c-0.173-0.015-0.385-0.04-0.645-0.04
		c-0.259,0-0.472,0.024-0.645,0.04c0.047-0.691,0.063-1.296,0.063-2.178v-1.068c0-0.881-0.016-1.486-0.063-2.178
		c0.173,0.016,0.386,0.039,0.645,0.039c0.283,0,0.62-0.039,1.156-0.039c0.792,0,1.083,0.071,1.359,0.267
		c0.314,0.229,0.512,0.574,0.512,1.038c0,0.763-0.442,1.25-1.219,1.448c0.503,0.888,1.1,1.784,1.673,2.672
		c-0.235-0.015-0.472-0.04-0.708-0.04c-0.236,0-0.479,0.024-0.714,0.04L186.052,69.596z M186.005,67.119
		c-0.017,0.715-0.024,1.422-0.024,2.139c0.063,0.007,0.118,0.014,0.172,0.014c0.693,0,1.07-0.384,1.07-1.124
		C187.223,67.22,186.861,67.119,186.005,67.119"/>
	<path d="M193.229,66.67c0.112,0.024,0.229,0.039,0.346,0.039c0.119,0,0.237-0.015,0.346-0.039
		c-0.519,1.235-1.541,3.625-2.154,5.424c-0.117-0.015-0.228-0.04-0.346-0.04s-0.236,0.024-0.346,0.04
		c-0.488-1.344-1.619-4.222-2.129-5.424c0.243,0.024,0.479,0.039,0.707,0.039c0.228,0,0.463-0.015,0.691-0.039
		c0.354,1.172,0.92,2.634,1.4,3.946C192.287,69.305,192.821,67.889,193.229,66.67"/>
	<path d="M194.757,68.849c0-0.881-0.016-1.486-0.065-2.178c0.174,0.016,0.386,0.039,0.646,0.039s0.471-0.023,0.645-0.039
		c-0.048,0.692-0.063,1.297-0.063,2.178v1.068c0,0.881,0.016,1.487,0.063,2.178c-0.174-0.015-0.386-0.04-0.645-0.04
		s-0.472,0.024-0.646,0.04c0.049-0.691,0.065-1.296,0.065-2.178V68.849z"/>
	<path d="M201.595,71.183c-0.086,0.221-0.149,0.448-0.173,0.668c-0.417,0.221-0.959,0.347-1.604,0.347c-1.823,0-2.9-1.141-2.9-2.626
		c0-2.169,1.469-3.003,3.121-3.003c0.55,0,1.241,0.165,1.604,0.385c-0.103,0.259-0.157,0.535-0.182,0.802h-0.11
		c-0.392-0.488-0.793-0.7-1.351-0.7c-0.842,0-1.792,0.731-1.792,2.397c0,1.62,0.958,2.257,1.862,2.257
		c0.504,0,1.085-0.236,1.424-0.59L201.595,71.183z"/>
	<path d="M202.516,68.849c0-0.881-0.017-1.486-0.063-2.178c0.462,0.009,0.936,0.039,1.399,0.039c0.771,0,1.431-0.015,1.643-0.039
		c-0.016,0.095-0.031,0.188-0.031,0.331c0,0.165,0.016,0.235,0.031,0.353c-0.597-0.039-1.541-0.094-1.776-0.094
		c-0.039,0.575-0.039,1.14-0.039,1.714c0.684-0.016,1.188-0.032,1.784-0.063c-0.032,0.182-0.039,0.252-0.039,0.354
		c0,0.087,0.015,0.158,0.039,0.323c-0.597-0.048-1.188-0.07-1.784-0.07c0,0.329-0.008,0.667-0.008,1.005
		c0,0.33,0.008,0.668,0.022,0.981c0.589,0,1.195-0.03,1.801-0.101c-0.016,0.109-0.031,0.188-0.031,0.353
		c0,0.167,0.016,0.245,0.031,0.338c-0.283-0.007-0.652-0.04-1.376-0.04c-1.28,0-1.493,0.024-1.666,0.04
		c0.046-0.691,0.063-1.296,0.063-2.178V68.849z"/>
	<path d="M208.838,67.732c-0.165-0.448-0.473-0.676-0.952-0.676s-0.816,0.329-0.816,0.706c0,1.165,2.389,0.875,2.389,2.658
		c0,1.055-0.833,1.777-2.083,1.777c-0.566,0-1.038-0.165-1.266-0.338c0.103-0.362,0.172-0.645,0.228-0.999h0.148
		c0.088,0.456,0.449,0.849,1.087,0.849c0.611,0,0.919-0.361,0.919-0.803c0-1.187-2.342-0.871-2.342-2.657
		c0-1.084,0.833-1.682,1.768-1.682c0.565,0,0.991,0.149,1.29,0.385c-0.095,0.244-0.149,0.432-0.253,0.778H208.838z"/>
</g>
</svg>
