<?xml version="1.0" encoding="utf-8"?>
<!-- Generator: Adobe Illustrator 19.0.1, SVG Export Plug-In . SVG Version: 6.00 Build 0)  -->
<svg version="1.1" id="Layer_1" xmlns="http://www.w3.org/2000/svg" xmlns:xlink="http://www.w3.org/1999/xlink" x="0px" y="0px"
	 viewBox="-179 361 252 72" style="enable-background:new -179 361 252 72;" xml:space="preserve">
<style type="text/css">
	.st0{fill:#FFFFFF;}
	.st1{fill:#FFFFFF;stroke:#FFFFFF;stroke-miterlimit:10;}
</style>
<g>
	<g>
		<g>
			<g>
				<g>
					<path class="st0" d="M-97.8,389.2c0,0.6-0.4,1.1-1.1,1.1s-1.1-0.5-1.1-1.1v-9.7c0-0.6,0.4-1.1,1.1-1.1h5c3,0,4.4,1.6,4.4,3.5
						s-1.3,3.5-4.4,3.5h-3.9V389.2z M-93.6,380.3h-4.1v3.4h4.1c1.3,0,1.9-0.7,1.9-1.7S-92.4,380.3-93.6,380.3z"/>
					<path class="st0" d="M-81.7,378.9l4.9,10c0.1,0.2,0.1,0.4,0.1,0.5c0,0.6-0.5,0.9-1,0.9c-0.4,0-0.8-0.2-1-0.7l-1.1-2.4h-5.7
						l-1.1,2.4c-0.2,0.5-0.6,0.7-1,0.7c-0.5,0-1-0.4-1-0.9c0-0.2,0-0.3,0.1-0.5l4.9-10c0.2-0.4,0.4-0.6,0.9-0.6
						C-82.2,378.3-81.9,378.5-81.7,378.9z M-84.7,385.6h4.1l-2.1-4.4L-84.7,385.6z"/>
					<path class="st0" d="M-65.6,388.3c0.5,0,1,0.4,1,1c0,0.5-0.4,0.9-1,0.9h-6.9c-0.6,0-1.1-0.4-1.1-1.1v-9.7
						c0-0.6,0.5-1.1,1.1-1.1s1.1,0.5,1.1,1.1v8.9C-71.4,388.3-65.6,388.3-65.6,388.3z"/>
					<path class="st0" d="M-50.8,379c0.2-0.4,0.5-0.7,1.1-0.7s1.1,0.4,1.1,1.1v9.9c0,0.6-0.5,1.1-1.1,1.1s-1.1-0.5-1.1-1.1V383
						l-3.5,6.7c-0.2,0.4-0.5,0.6-1,0.6s-0.8-0.3-1-0.6l-3.5-6.7v6.3c0,0.6-0.4,1.1-1.1,1.1c-0.6,0-1.1-0.5-1.1-1.1v-9.9
						c0-0.7,0.5-1.1,1.1-1.1c0.5,0,0.8,0.3,1.1,0.7l4.4,8.5L-50.8,379z"/>
					<path class="st0" d="M-42.2,388.3h6.3c0.5,0,0.9,0.4,0.9,0.9s-0.4,0.9-0.9,0.9h-7.4c-0.6,0-1.1-0.4-1.1-1.1v-9.5
						c0-0.6,0.4-1.1,1.1-1.1h7.2c0.5,0,0.9,0.4,0.9,0.9s-0.4,0.9-0.9,0.9h-6.1v2.9h3.5c0.5,0,0.9,0.4,0.9,0.9s-0.4,0.9-0.9,0.9h-3.5
						V388.3z"/>
					<path class="st0" d="M-26,380.3v8.9c0,0.6-0.5,1.1-1.1,1.1s-1.1-0.5-1.1-1.1v-8.9h-3.5c-0.5,0-1-0.4-1-0.9s0.4-0.9,1-0.9h9.2
						c0.5,0,1,0.4,1,0.9s-0.4,0.9-1,0.9H-26z"/>
					<path class="st0" d="M-12.6,380.3v8.9c0,0.6-0.5,1.1-1.1,1.1s-1.1-0.5-1.1-1.1v-8.9h-3.5c-0.5,0-1-0.4-1-0.9s0.4-0.9,1-0.9h9.2
						c0.5,0,1,0.4,1,0.9s-0.4,0.9-1,0.9H-12.6z"/>
					<path class="st0" d="M-6.4,384.3c0-3.4,2.4-6.1,6.3-6.1c3.9,0,6.3,2.7,6.3,6.1c0,3.4-2.4,6.1-6.3,6.1S-6.4,387.7-6.4,384.3z
						 M4,384.3c0-2.4-1.5-4.3-4.1-4.3s-4.1,1.9-4.1,4.3c0,2.4,1.5,4.3,4.1,4.3S4,386.7,4,384.3z"/>
					<path class="st0" d="M24,384.1h3.8c0.5,0,0.9,0.3,0.9,0.9v2.8c0,0.3-0.1,0.4-0.3,0.7c-1.1,1.1-2.9,1.9-5.1,1.9
						c-4.4,0-6.5-2.7-6.5-6.1c0-3.5,2.7-6.1,6.5-6.1c1.6,0,3.3,0.5,4.5,1.5c0.3,0.3,0.4,0.5,0.4,0.8c0,0.5-0.4,0.9-1,0.9
						c-0.2,0-0.4,0-0.6-0.2c-0.9-0.7-1.9-1.2-3.3-1.2c-2.8,0-4.3,1.9-4.3,4.2c0,2.2,1.2,4.3,4.3,4.3c1.3,0,2.3-0.4,3.2-1.1v-1.7H24
						c-0.5,0-0.9-0.4-0.9-0.9C23.1,384.5,23.5,384.1,24,384.1z"/>
					<path class="st0" d="M42.1,381.3c0,1.1-0.7,2.2-2,2.6c2,0.3,2.8,1.4,2.8,2.8c0,1.7-1.3,3.4-4.6,3.4h-4.7
						c-0.7,0-1.1-0.5-1.1-1.1v-9.5c0-0.7,0.5-1.1,1.1-1.1h4.6C40.6,378.5,42.1,379.5,42.1,381.3z M34.7,383.2h3.4
						c1.2,0,1.8-0.7,1.8-1.5c0-0.9-0.7-1.4-1.9-1.4h-3.3V383.2z M34.7,385v3.3h3.7c1.7,0,2.3-0.8,2.3-1.7c0-1.1-0.9-1.6-2.3-1.6
						C38.4,385,34.7,385,34.7,385z"/>
					<path class="st0" d="M52.1,378.9l4.9,10c0.1,0.2,0.1,0.4,0.1,0.5c0,0.6-0.5,0.9-1,0.9c-0.4,0-0.8-0.2-1-0.7l-1.1-2.4h-5.7
						l-1.1,2.4c-0.2,0.5-0.6,0.7-1,0.7c-0.5,0-1-0.4-1-0.9c0-0.2,0-0.3,0.1-0.5l4.9-10c0.2-0.4,0.4-0.6,0.9-0.6
						C51.6,378.3,51.9,378.5,52.1,378.9z M49.1,385.6h4.1l-2.1-4.4L49.1,385.6z"/>
				</g>
			</g>
		</g>
	</g>
	<g>
		<g>
			<path class="st0" d="M61.6,386.1c1.2,0,2.1,0.9,2.1,2.1c0,1.2-0.9,2.1-2.1,2.1c-1.2,0-2.1-0.9-2.1-2.1
				C59.5,387,60.4,386.1,61.6,386.1z M61.6,390.1c1.1,0,1.9-0.9,1.9-1.9s-0.7-1.9-1.9-1.9c-1.1,0-1.9,0.9-1.9,1.9
				C59.7,389.2,60.5,390.1,61.6,390.1z M61.1,387h0.6c0.4,0,0.7,0.2,0.7,0.6c0,0.3-0.1,0.5-0.4,0.6l0.5,0.8c0,0.1,0,0.1-0.1,0.2
				c-0.1,0-0.1,0-0.2-0.1l-0.5-0.9h-0.5v0.8c0,0.1-0.1,0.1-0.1,0.1L61,389v-2C61,387.1,61,387,61.1,387z M61.2,387.2v0.9h0.5
				c0.3,0,0.4-0.2,0.4-0.5c0-0.3-0.2-0.4-0.4-0.4H61.2z"/>
		</g>
	</g>
</g>
<path class="st0" d="M-138.4,426c-15.7,0-28.5-12.8-28.5-28.5s12.8-28.5,28.5-28.5c15.7,0,28.5,12.8,28.5,28.5S-122.7,426-138.4,426
	z M-138.4,371.5c-14.3,0-26,11.7-26,26s11.7,26,26,26c14.3,0,26-11.7,26-26S-124.1,371.5-138.4,371.5z"/>
<g>
	<path class="st0" d="M-70.6,401.5c0.3-0.6,0.7-0.9,1.3-0.9c0.8,0,1.4,0.5,1.4,1.4v18.4c0,0.8-0.5,1.4-1.4,1.4s-1.4-0.7-1.4-1.4
		v-12.6l-6.5,13.2c-0.2,0.5-0.6,0.9-1.3,0.9c-0.7,0-1.1-0.3-1.3-0.9l-6.5-13.2v12.6c0,0.8-0.5,1.4-1.4,1.4s-1.4-0.7-1.4-1.4V402
		c0-0.9,0.6-1.4,1.4-1.4c0.7,0,1.1,0.3,1.3,0.9l7.9,16.2L-70.6,401.5z"/>
	<path class="st0" d="M-52.3,409.9c-0.9,2.6-2.4,6.4-4.1,10.4c-1.6,3.7-3,5.7-5.8,7.2c-0.2,0.1-0.5,0.2-0.7,0.2
		c-0.8,0-1.3-0.6-1.3-1.2s0.2-0.9,0.7-1.2c1.8-1.2,2.6-2.1,3.6-3.9l-4.9-11.7c-0.1-0.2-0.1-0.4-0.1-0.6c0-0.9,0.6-1.3,1.3-1.3
		c0.7,0,1,0.3,1.2,0.8l4,9.9l3.6-9.7c0.2-0.7,0.7-1.1,1.4-1.1c0.6,0,1.2,0.4,1.2,1.3C-52.2,409.4-52.3,409.7-52.3,409.9z"/>
	<path class="st0" d="M-47.9,421.9c-0.9,0-1.5-0.7-1.5-1.5v-18c0-0.9,0.6-1.5,1.5-1.5h8.4c4.7,0,7.1,2.5,7.1,6.1
		c0,2.8-1.5,4.8-4.3,5.6l3.5,7.1c0.1,0.2,0.2,0.4,0.2,0.7c0,0.7-0.5,1.5-1.5,1.5c-0.7,0-1.1-0.3-1.3-0.8l-4-8.1h-6.6v7.4
		C-46.5,421.2-47,421.9-47.9,421.9z M-46.5,403.6v6.7h7.5c2.3,0,3.5-1.5,3.5-3.3s-1.2-3.4-3.5-3.4H-46.5z"/>
	<path class="st0" d="M-26.9,421.9c-0.9,0-1.5-0.7-1.5-1.5v-18c0-0.9,0.6-1.5,1.5-1.5h8.4c4.7,0,7.1,2.5,7.1,6.1
		c0,2.8-1.5,4.8-4.3,5.6l3.5,7.1c0.1,0.2,0.2,0.4,0.2,0.7c0,0.7-0.5,1.5-1.5,1.5c-0.7,0-1.1-0.3-1.3-0.8l-4-8.1h-6.6v7.4
		C-25.4,421.2-26,421.9-26.9,421.9z M-25.4,403.6v6.7h7.5c2.3,0,3.5-1.5,3.5-3.3s-1.2-3.4-3.5-3.4H-25.4z"/>
	<path class="st0" d="M11.1,401.5c0.3-0.6,0.7-0.9,1.3-0.9c0.8,0,1.4,0.5,1.4,1.4v18.4c0,0.8-0.5,1.4-1.4,1.4s-1.4-0.7-1.4-1.4
		v-12.6L4.5,421c-0.3,0.5-0.6,0.9-1.3,0.9s-1.1-0.3-1.3-0.9l-6.5-13.2v12.6c0,0.8-0.5,1.4-1.4,1.4s-1.4-0.7-1.4-1.4V402
		c0-0.9,0.6-1.4,1.4-1.4c0.7,0,1.1,0.3,1.3,0.9l7.9,16.2L11.1,401.5z"/>
	<path class="st0" d="M30.7,414.9c0,0.5-0.3,1-1.1,1h-9.3c0.2,2.2,1.6,3.8,4.2,3.8c1.6,0,2.6-0.6,3.6-1.5c0.3-0.3,0.6-0.5,1-0.5
		c0.7,0,1.2,0.5,1.2,1.2c0,0.3-0.2,0.6-0.4,0.8c-1.2,1.4-3.3,2.3-5.5,2.3c-4.6,0-7.1-3.2-7.1-7.1c0-4.1,3-7.1,7-7.1
		C28.2,407.7,30.7,410.9,30.7,414.9z M24.3,410c-2.2,0-3.6,1.5-3.9,3.5h7.7C27.8,411.6,26.4,410,24.3,410z"/>
	<path class="st0" d="M39.4,407.7c2.1,0,3.8,1.1,4.8,2.7v-8.3c0-0.8,0.6-1.5,1.5-1.5s1.5,0.7,1.5,1.5v18.3c0,0.8-0.5,1.5-1.4,1.5
		s-1.4-0.7-1.4-1.5v-1.1c-0.9,1.6-2.8,2.7-4.9,2.7c-3.6,0-6.5-3-6.5-7.1C32.9,410.5,35.8,407.7,39.4,407.7z M40,419.5
		c2.5,0,4.2-2.2,4.2-4.7s-1.7-4.7-4.2-4.7s-4.2,1.9-4.2,4.7C35.8,417.6,37.5,419.5,40,419.5z"/>
</g>
<path class="st1" d="M-124.8,419.7"/>
<g>
	<path class="st0" d="M-130.8,383.2H-146c-2.6,0-4.8,2.2-4.8,4.8v18.3c0,2.6,2.2,4.8,4.8,4.8h15.2c2.6,0,4.8-2.2,4.8-4.8V388
		C-126,385.3-128.2,383.2-130.8,383.2z M-143.9,385.7h11v1.7h-11V385.7z M-147.9,390.2c0-0.6,0.5-1,1-1h17c0.6,0,1,0.5,1,1v5.3
		c0,0.6-0.5,1-1,1h-17c-0.6,0-1-0.5-1-1V390.2z M-146.4,406.3c-1.2,0-2.1-1-2.1-2.1s1-2.1,2.1-2.1s2.1,1,2.1,2.1
		S-145.3,406.3-146.4,406.3z M-130.4,406.3c-1.2,0-2.1-1-2.1-2.1s1-2.1,2.1-2.1s2.1,1,2.1,2.1S-129.2,406.3-130.4,406.3z"/>
	<circle class="st0" cx="-138.4" cy="380.5" r="2.1"/>
	<polygon class="st0" points="-132.9,411.7 -137.1,411.7 -139.7,411.7 -143.9,411.7 -154.2,420.2 -152.8,420.8 -150.8,421.9 
		-150.2,422.4 -143.9,413.2 -138.4,413.2 -132.9,413.2 -126.6,422.4 -126,421.9 -124.1,421.1 -122.6,420.2 	"/>
</g>
<rect x="-146.4" y="414.8" class="st0" width="16.1" height="2.1"/>
<rect x="-150.1" y="418.7" class="st0" width="24.1" height="2.4"/>
</svg>
