<?xml version="1.0" encoding="utf-8"?>
<!-- Generator: Adobe Illustrator 16.0.5, SVG Export Plug-In . SVG Version: 6.00 Build 0)  -->
<!DOCTYPE svg PUBLIC "-//W3C//DTD SVG 1.1//EN" "http://www.w3.org/Graphics/SVG/1.1/DTD/svg11.dtd">
<svg version="1.1" id="Layer_1" xmlns="http://www.w3.org/2000/svg" xmlns:xlink="http://www.w3.org/1999/xlink" x="0px" y="0px"
	 width="20px" height="20px" viewBox="0 0 20 20" enable-background="new 0 0 20 20" xml:space="preserve">
<g>
	<path fill="#FFFFFF" d="M18,5H2C1.448,5,1,4.552,1,4s0.448-1,1-1h16c0.553,0,1,0.448,1,1S18.553,5,18,5z"/>
</g>
<g>
	<path fill="#FFFFFF" d="M18,17H2c-0.552,0-1-0.447-1-1s0.448-1,1-1h16c0.553,0,1,0.447,1,1S18.553,17,18,17z"/>
</g>
<g>
	<path fill="#FFFFFF" d="M18,11H2c-0.552,0-1-0.447-1-1c0-0.552,0.448-1,1-1h16c0.553,0,1,0.448,1,1C19,10.553,18.553,11,18,11z"/>
</g>
</svg>
