<?xml version="1.0" encoding="utf-8"?>
<!-- Generator: Adobe Illustrator 16.0.5, SVG Export Plug-In . SVG Version: 6.00 Build 0)  -->
<!DOCTYPE svg PUBLIC "-//W3C//DTD SVG 1.1//EN" "http://www.w3.org/Graphics/SVG/1.1/DTD/svg11.dtd">
<svg version="1.1" id="Layer_1" xmlns="http://www.w3.org/2000/svg" xmlns:xlink="http://www.w3.org/1999/xlink" x="0px" y="0px"
	 width="200.016px" height="42.98px" viewBox="0 0 200.016 42.98" enable-background="new 0 0 200.016 42.98" xml:space="preserve">
<g>
	<g>
		<g>
			<g>
				<g>
					<path fill="#FFFFFF" d="M49.127,37.366l2.545,5.215c0.022,0.045,0.045,0.102,0.045,0.147c0,0.182-0.137,0.307-0.33,0.307
						c-0.159,0-0.228-0.079-0.307-0.228l-0.728-1.488h-3.045l-0.727,1.488c-0.08,0.148-0.148,0.228-0.307,0.228
						c-0.193,0-0.33-0.125-0.33-0.307c0-0.046,0.023-0.103,0.045-0.147l2.545-5.215c0.068-0.136,0.159-0.193,0.295-0.193
						C48.968,37.173,49.059,37.229,49.127,37.366z M48.832,38.093l-1.261,2.682h2.522L48.832,38.093z"/>
					<path fill="#FFFFFF" d="M61.759,38.036c0.08,0.079,0.114,0.159,0.114,0.25c0,0.159-0.136,0.295-0.307,0.295
						c-0.113,0-0.204-0.045-0.307-0.147c-0.443-0.42-0.954-0.716-1.704-0.716c-1.659,0-2.443,1.182-2.443,2.386
						c0,1.205,0.784,2.387,2.443,2.387c0.75,0,1.261-0.296,1.704-0.716c0.103-0.103,0.193-0.148,0.307-0.148
						c0.171,0,0.307,0.137,0.307,0.296c0,0.091-0.034,0.171-0.114,0.25c-0.522,0.557-1.33,0.909-2.261,0.909
						c-2.022,0-3.068-1.432-3.068-2.978c0-1.544,1.045-2.976,3.068-2.976C60.43,37.127,61.237,37.479,61.759,38.036z"/>
					<path fill="#FFFFFF" d="M63.934,42.354h3.397c0.159,0,0.296,0.137,0.296,0.296c0,0.158-0.137,0.295-0.296,0.295h-3.738
						c-0.205,0-0.341-0.159-0.341-0.341v-4.999c0-0.193,0.147-0.341,0.341-0.341h3.613c0.159,0,0.295,0.137,0.295,0.296
						c0,0.159-0.137,0.295-0.295,0.295h-3.272v1.817h1.92c0.159,0,0.295,0.137,0.295,0.296s-0.137,0.296-0.295,0.296h-1.92V42.354z"
						/>
					<path fill="#FFFFFF" d="M72.894,42.354c0.159,0,0.295,0.125,0.295,0.296c0,0.17-0.137,0.295-0.295,0.295h-3.59
						c-0.205,0-0.341-0.159-0.341-0.341v-5.09c0-0.193,0.147-0.34,0.341-0.34c0.193,0,0.341,0.147,0.341,0.34v4.84H72.894z"/>
					<path fill="#FFFFFF" d="M75.151,42.354h3.397c0.159,0,0.295,0.137,0.295,0.296c0,0.158-0.136,0.295-0.295,0.295H74.81
						c-0.205,0-0.341-0.159-0.341-0.341v-4.999c0-0.193,0.147-0.341,0.341-0.341h3.613c0.159,0,0.295,0.137,0.295,0.296
						c0,0.159-0.137,0.295-0.295,0.295h-3.272v1.817h1.92c0.159,0,0.295,0.137,0.295,0.296s-0.137,0.296-0.295,0.296h-1.92V42.354z"
						/>
					<path fill="#FFFFFF" d="M80.861,42.694c0,0.193-0.148,0.341-0.341,0.341c-0.193,0-0.34-0.147-0.34-0.341v-5.09
						c0-0.205,0.147-0.341,0.34-0.341h2.795c1.284,0,1.954,0.67,1.954,1.614c0,0.761-0.477,1.375-1.386,1.557l1.159,2.124
						c0.022,0.046,0.045,0.103,0.045,0.171c0,0.171-0.137,0.307-0.318,0.307c-0.147,0-0.238-0.067-0.295-0.182l-1.295-2.375h-2.318
						V42.694z M83.417,37.843h-2.556v2.057h2.556c0.739,0,1.17-0.409,1.17-1.022C84.588,38.263,84.156,37.843,83.417,37.843z"/>
					<path fill="#FFFFFF" d="M87.602,42.694c0,0.193-0.147,0.341-0.341,0.341s-0.341-0.147-0.341-0.341v-5.181
						c0-0.193,0.147-0.34,0.341-0.34s0.341,0.147,0.341,0.34V42.694z"/>
					<path fill="#FFFFFF" d="M92.162,37.366l2.545,5.215c0.022,0.045,0.045,0.102,0.045,0.147c0,0.182-0.136,0.307-0.33,0.307
						c-0.159,0-0.227-0.079-0.307-0.228l-0.727-1.488h-3.045l-0.728,1.488c-0.079,0.148-0.147,0.228-0.307,0.228
						c-0.193,0-0.33-0.125-0.33-0.307c0-0.046,0.023-0.103,0.045-0.147l2.545-5.215c0.068-0.136,0.159-0.193,0.295-0.193
						C92.003,37.173,92.094,37.229,92.162,37.366z M91.867,38.093l-1.261,2.682h2.522L91.867,38.093z"/>
					<path fill="#FFFFFF" d="M100.558,41.888v-4.385c0-0.182,0.147-0.33,0.33-0.33c0.182,0,0.329,0.147,0.329,0.33v5.192
						c0,0.182-0.113,0.33-0.329,0.33c-0.137,0-0.228-0.08-0.308-0.171l-3.806-4.511v4.363c0,0.182-0.159,0.329-0.33,0.329
						c-0.182,0-0.33-0.147-0.33-0.329v-5.204c0-0.193,0.125-0.33,0.33-0.33c0.136,0,0.216,0.068,0.295,0.159L100.558,41.888z"/>
					<path fill="#FFFFFF" d="M109.804,40.149h2.022c0.159,0,0.284,0.125,0.284,0.284v1.442c0,0.092-0.046,0.159-0.103,0.228
						c-0.512,0.546-1.454,0.978-2.488,0.978c-2.011,0-3.079-1.409-3.079-2.978c0-1.681,1.182-2.976,3.079-2.976
						c0.841,0,1.647,0.284,2.17,0.806c0.057,0.057,0.114,0.125,0.114,0.216c0,0.159-0.137,0.295-0.308,0.295
						c-0.09,0-0.158-0.022-0.227-0.08c-0.443-0.375-0.966-0.647-1.75-0.647c-1.534,0-2.397,1.102-2.397,2.386
						c0,1.216,0.773,2.421,2.409,2.421c0.783,0,1.397-0.262,1.932-0.693v-1.113h-1.659c-0.159,0-0.284-0.114-0.284-0.284
						C109.52,40.274,109.645,40.149,109.804,40.149z"/>
					<path fill="#FFFFFF" d="M114.4,42.694c0,0.193-0.147,0.341-0.341,0.341s-0.341-0.147-0.341-0.341v-5.09
						c0-0.205,0.147-0.341,0.341-0.341h2.795c1.284,0,1.954,0.67,1.954,1.614c0,0.761-0.478,1.375-1.386,1.557l1.159,2.124
						c0.022,0.046,0.045,0.103,0.045,0.171c0,0.171-0.137,0.307-0.318,0.307c-0.147,0-0.238-0.067-0.295-0.182l-1.296-2.375H114.4
						V42.694z M116.957,37.843H114.4v2.057h2.557c0.738,0,1.17-0.409,1.17-1.022C118.126,38.263,117.695,37.843,116.957,37.843z"/>
					<path fill="#FFFFFF" d="M123.035,43.081c-1.897,0-3-1.375-3-2.978c0-1.602,1.103-2.976,3-2.976s2.999,1.375,2.999,2.976
						C126.034,41.706,124.932,43.081,123.035,43.081z M125.353,40.104c0-1.249-0.808-2.396-2.318-2.396s-2.317,1.147-2.317,2.396
						c0,1.25,0.807,2.397,2.317,2.397S125.353,41.354,125.353,40.104z"/>
					<path fill="#FFFFFF" d="M127.477,40.706v-3.193c0-0.193,0.147-0.34,0.341-0.34c0.192,0,0.341,0.147,0.341,0.34v3.25
						c0,1.012,0.692,1.728,1.966,1.728c1.271,0,1.965-0.716,1.965-1.728v-3.25c0-0.193,0.147-0.34,0.341-0.34
						s0.341,0.147,0.341,0.34v3.193c0,1.454-1.033,2.375-2.646,2.375S127.477,42.16,127.477,40.706z"/>
					<path fill="#FFFFFF" d="M135.323,42.694c0,0.193-0.147,0.341-0.341,0.341s-0.341-0.147-0.341-0.341v-5.09
						c0-0.205,0.147-0.341,0.341-0.341h2.511c1.284,0,1.954,0.694,1.954,1.636c0,0.955-0.67,1.625-1.954,1.625h-2.17V42.694z
						 M137.595,37.843h-2.272v2.102h2.272c0.738,0,1.17-0.432,1.17-1.045C138.765,38.286,138.333,37.843,137.595,37.843z"/>
					<path fill="#FFFFFF" d="M149.295,38.036c0.08,0.079,0.114,0.159,0.114,0.25c0,0.159-0.137,0.295-0.308,0.295
						c-0.113,0-0.204-0.045-0.307-0.147c-0.442-0.42-0.954-0.716-1.704-0.716c-1.658,0-2.442,1.182-2.442,2.386
						c0,1.205,0.784,2.387,2.442,2.387c0.75,0,1.262-0.296,1.704-0.716c0.103-0.103,0.193-0.148,0.307-0.148
						c0.171,0,0.308,0.137,0.308,0.296c0,0.091-0.034,0.171-0.114,0.25c-0.522,0.557-1.329,0.909-2.261,0.909
						c-2.022,0-3.067-1.432-3.067-2.978c0-1.544,1.045-2.976,3.067-2.976C147.966,37.127,148.773,37.479,149.295,38.036z"/>
					<path fill="#FFFFFF" d="M153.391,43.081c-1.897,0-2.999-1.375-2.999-2.978c0-1.602,1.102-2.976,2.999-2.976
						s2.999,1.375,2.999,2.976C156.39,41.706,155.289,43.081,153.391,43.081z M155.709,40.104c0-1.249-0.808-2.396-2.318-2.396
						s-2.317,1.147-2.317,2.396c0,1.25,0.807,2.397,2.317,2.397S155.709,41.354,155.709,40.104z"/>
					<path fill="#FFFFFF" d="M164.058,42.706c0,0.182-0.147,0.329-0.329,0.329s-0.329-0.147-0.329-0.329v-4.068l-2.08,4.169
						c-0.079,0.148-0.158,0.228-0.329,0.228s-0.25-0.079-0.329-0.228l-2.079-4.169v4.068c0,0.182-0.148,0.329-0.33,0.329
						s-0.329-0.147-0.329-0.329v-5.204c0-0.205,0.147-0.33,0.329-0.33c0.193,0,0.284,0.09,0.363,0.25l2.375,4.761l2.375-4.761
						c0.079-0.16,0.17-0.25,0.363-0.25c0.182,0,0.329,0.125,0.329,0.33V42.706z"/>
					<path fill="#FFFFFF" d="M166.667,42.694c0,0.193-0.147,0.341-0.341,0.341s-0.341-0.147-0.341-0.341v-5.09
						c0-0.205,0.147-0.341,0.341-0.341h2.511c1.284,0,1.954,0.694,1.954,1.636c0,0.955-0.67,1.625-1.954,1.625h-2.17V42.694z
						 M168.939,37.843h-2.272v2.102h2.272c0.738,0,1.17-0.432,1.17-1.045C170.109,38.286,169.677,37.843,168.939,37.843z"/>
					<path fill="#FFFFFF" d="M174.195,37.366l2.545,5.215c0.023,0.045,0.046,0.102,0.046,0.147c0,0.182-0.137,0.307-0.33,0.307
						c-0.158,0-0.227-0.079-0.307-0.228l-0.727-1.488h-3.046l-0.727,1.488c-0.079,0.148-0.147,0.228-0.307,0.228
						c-0.193,0-0.33-0.125-0.33-0.307c0-0.046,0.023-0.103,0.046-0.147l2.545-5.215c0.068-0.136,0.159-0.193,0.296-0.193
						C174.036,37.173,174.126,37.229,174.195,37.366z M173.9,38.093l-1.262,2.682h2.522L173.9,38.093z"/>
					<path fill="#FFFFFF" d="M182.59,41.888v-4.385c0-0.182,0.148-0.33,0.33-0.33s0.329,0.147,0.329,0.33v5.192
						c0,0.182-0.113,0.33-0.329,0.33c-0.137,0-0.228-0.08-0.307-0.171l-3.807-4.511v4.363c0,0.182-0.159,0.329-0.329,0.329
						c-0.182,0-0.33-0.147-0.33-0.329v-5.204c0-0.193,0.125-0.33,0.33-0.33c0.136,0,0.216,0.068,0.295,0.159L182.59,41.888z"/>
					<path fill="#FFFFFF" d="M187.309,40.513v2.182c0,0.193-0.147,0.341-0.341,0.341s-0.341-0.147-0.341-0.341v-2.182l-2.17-2.829
						c-0.058-0.068-0.091-0.125-0.091-0.205c0-0.182,0.136-0.307,0.329-0.307c0.125,0,0.193,0.045,0.272,0.147l2,2.602l2-2.602
						c0.079-0.103,0.147-0.147,0.272-0.147c0.193,0,0.329,0.125,0.329,0.307c0,0.08-0.034,0.136-0.091,0.205L187.309,40.513z"/>
				</g>
			</g>
			<path fill="#FFFFFF" d="M17.992,19.577c-0.174,0-0.341-0.069-0.465-0.192l-5.844-5.844c-2.068-2.069-2.068-5.436,0-7.505
				l5.844-5.843C17.651,0.069,17.818,0,17.992,0l0,0c0.175,0,0.342,0.069,0.465,0.192l5.842,5.843
				c0.999,0.999,1.549,2.332,1.549,3.752c0,1.421-0.55,2.754-1.549,3.753l-5.842,5.843C18.334,19.508,18.167,19.577,17.992,19.577z
				 M17.992,1.587l-5.379,5.378c-1.556,1.557-1.556,4.089,0,5.646l5.379,5.379l5.377-5.379c0.75-0.75,1.164-1.753,1.164-2.823
				c0-1.069-0.414-2.072-1.164-2.823L17.992,1.587z"/>
			<path fill="#FFFFFF" d="M17.967,39.762L17.967,39.762c-0.174,0-0.341-0.069-0.465-0.193L1.551,23.617
				c-2.067-2.069-2.067-5.435,0-7.503l3.661-3.66c0.256-0.257,0.673-0.257,0.929,0l15.951,15.95c0.999,1,1.55,2.332,1.55,3.753
				c0,1.42-0.551,2.753-1.55,3.752l-3.66,3.659C18.309,39.693,18.142,39.762,17.967,39.762z M5.676,13.849l-3.195,3.195
				c-1.556,1.556-1.556,4.088,0,5.645l15.486,15.487l3.195-3.195c0.751-0.75,1.165-1.752,1.165-2.822
				c0-1.07-0.414-2.073-1.165-2.824L5.676,13.849z"/>
			<path fill="#FFFFFF" d="M28.069,29.669c-0.168,0-0.336-0.064-0.465-0.193l-3.651-3.649c-2.068-2.07-2.068-5.438,0-7.506
				l5.855-5.856c0.257-0.257,0.673-0.257,0.93,0l3.651,3.65c2.07,2.069,2.07,5.436,0,7.505l-5.856,5.856
				C28.406,29.604,28.238,29.669,28.069,29.669z M30.274,13.859l-5.391,5.391c-1.556,1.557-1.556,4.09,0,5.647l3.186,3.186
				l5.391-5.392c1.557-1.557,1.557-4.09,0-5.646L30.274,13.859z"/>
			<g>
				<g>
					<path fill="#FFFFFF" d="M48.582,26.056c0,0.57-0.417,1.031-1.031,1.031s-1.031-0.461-1.031-1.031v-9.082
						c0-0.57,0.373-1.031,1.031-1.031h4.65c2.852,0,4.102,1.514,4.102,3.312c0,1.799-1.25,3.313-4.102,3.313h-3.619V26.056z
						 M52.442,17.654h-3.86v3.203h3.86c1.207,0,1.799-0.658,1.799-1.602C54.241,18.313,53.649,17.654,52.442,17.654z"/>
					<path fill="#FFFFFF" d="M63.598,16.338l4.606,9.388c0.088,0.175,0.131,0.329,0.131,0.482c0,0.527-0.438,0.877-0.921,0.877
						c-0.395,0-0.746-0.197-0.965-0.68l-1.075-2.216h-5.308l-1.075,2.216c-0.219,0.482-0.57,0.68-0.965,0.68
						c-0.482,0-0.921-0.351-0.921-0.877c0-0.153,0.044-0.307,0.132-0.482l4.606-9.388c0.176-0.373,0.417-0.57,0.877-0.57
						C63.182,15.768,63.423,15.965,63.598,16.338z M60.791,22.612h3.86l-1.93-4.102L60.791,22.612z"/>
					<path fill="#FFFFFF" d="M78.702,25.134c0.482,0,0.899,0.351,0.899,0.899c0,0.482-0.417,0.877-0.899,0.877h-6.471
						c-0.592,0-1.031-0.395-1.031-1.031v-9.082c0-0.57,0.461-1.031,1.031-1.031s1.031,0.461,1.031,1.031v8.335H78.702z"/>
					<path fill="#FFFFFF" d="M92.654,16.426c0.219-0.417,0.505-0.658,0.987-0.658c0.57,0,1.009,0.373,1.009,1.031v9.3
						c0,0.548-0.438,0.987-0.987,0.987c-0.57,0-0.987-0.439-0.987-0.987v-5.922l-3.268,6.317c-0.176,0.329-0.439,0.592-0.899,0.592
						s-0.724-0.263-0.899-0.592l-3.268-6.317v5.922c0,0.548-0.417,0.987-0.987,0.987c-0.548,0-0.987-0.439-0.987-0.987v-9.3
						c0-0.658,0.438-1.031,1.009-1.031c0.483,0,0.768,0.242,0.987,0.658l4.146,7.984L92.654,16.426z"/>
					<path fill="#FFFFFF" d="M100.689,25.156h5.944c0.482,0,0.877,0.395,0.877,0.877c0,0.482-0.395,0.877-0.877,0.877h-6.976
						c-0.592,0-1.03-0.417-1.03-1.031v-8.906c0-0.57,0.395-1.031,1.009-1.031h6.734c0.482,0,0.877,0.395,0.877,0.877
						c0,0.483-0.395,0.877-0.877,0.877h-5.682v2.698h3.313c0.482,0,0.877,0.395,0.877,0.877s-0.395,0.877-0.877,0.877h-3.313V25.156
						z"/>
					<path fill="#FFFFFF" d="M115.885,17.698v8.357c0,0.57-0.461,1.031-1.031,1.031s-1.031-0.461-1.031-1.031v-8.357h-3.29
						c-0.482,0-0.899-0.373-0.899-0.877s0.417-0.877,0.899-0.877h8.643c0.482,0,0.899,0.373,0.899,0.877s-0.417,0.877-0.899,0.877
						H115.885z"/>
					<path fill="#FFFFFF" d="M128.462,17.698v8.357c0,0.57-0.461,1.031-1.031,1.031s-1.03-0.461-1.03-1.031v-8.357h-3.291
						c-0.482,0-0.899-0.373-0.899-0.877s0.417-0.877,0.899-0.877h8.643c0.482,0,0.899,0.373,0.899,0.877s-0.417,0.877-0.899,0.877
						H128.462z"/>
					<path fill="#FFFFFF" d="M134.286,21.427c0-3.203,2.259-5.747,5.878-5.747s5.879,2.544,5.879,5.747s-2.26,5.747-5.879,5.747
						S134.286,24.63,134.286,21.427z M143.981,21.427c0-2.215-1.404-3.992-3.817-3.992s-3.816,1.776-3.816,3.992
						s1.403,3.992,3.816,3.992S143.981,23.643,143.981,21.427z"/>
					<path fill="#FFFFFF" d="M162.778,21.23h3.576c0.482,0,0.855,0.285,0.855,0.855v2.654c0,0.264-0.089,0.417-0.264,0.615
						c-0.987,1.009-2.72,1.82-4.738,1.82c-4.08,0-6.12-2.522-6.12-5.747c0-3.29,2.501-5.747,6.076-5.747
						c1.514,0,3.093,0.46,4.19,1.447c0.263,0.241,0.372,0.483,0.372,0.724c0,0.483-0.416,0.877-0.898,0.877
						c-0.198,0-0.373-0.043-0.549-0.175c-0.877-0.658-1.799-1.096-3.115-1.096c-2.588,0-4.014,1.776-4.014,3.97
						c0,2.106,1.097,4.058,4.058,4.058c1.185,0,2.194-0.351,3.027-0.987v-1.579h-2.457c-0.482,0-0.855-0.351-0.855-0.834
						C161.922,21.603,162.295,21.23,162.778,21.23z"/>
					<path fill="#FFFFFF" d="M179.722,18.62c0,1.075-0.658,2.018-1.908,2.479c1.842,0.241,2.588,1.338,2.588,2.632
						c0,1.624-1.25,3.181-4.32,3.181h-4.365c-0.658,0-1.031-0.461-1.031-1.031v-8.906c0-0.636,0.461-1.031,1.031-1.031h4.299
						C178.34,15.943,179.722,16.909,179.722,18.62z M172.748,20.353h3.224c1.163,0,1.667-0.658,1.667-1.426
						c0-0.855-0.614-1.272-1.754-1.272h-3.137V20.353z M172.748,22.063V25.2h3.465c1.558,0,2.15-0.724,2.15-1.623
						c0-0.987-0.834-1.514-2.194-1.514H172.748z"/>
					<path fill="#FFFFFF" d="M189.069,16.338l4.606,9.388c0.087,0.175,0.131,0.329,0.131,0.482c0,0.527-0.438,0.877-0.921,0.877
						c-0.396,0-0.746-0.197-0.965-0.68l-1.075-2.216h-5.309l-1.074,2.216c-0.22,0.482-0.57,0.68-0.965,0.68
						c-0.483,0-0.922-0.351-0.922-0.877c0-0.153,0.044-0.307,0.132-0.482l4.606-9.388c0.176-0.373,0.416-0.57,0.877-0.57
						S188.893,15.965,189.069,16.338z M186.261,22.612h3.86l-1.931-4.102L186.261,22.612z"/>
				</g>
			</g>
		</g>
	</g>
	<g>
		<g>
			<path fill="#FFFFFF" d="M198.019,23.093c1.157,0,1.981,0.883,1.981,1.981c0,1.098-0.824,1.981-1.981,1.981
				s-1.98-0.883-1.98-1.981C196.039,23.976,196.862,23.093,198.019,23.093z M198.019,26.852c1.063,0,1.754-0.812,1.754-1.778
				s-0.691-1.778-1.754-1.778s-1.754,0.812-1.754,1.778S196.957,26.852,198.019,26.852z M197.542,24h0.585
				c0.37,0,0.633,0.215,0.633,0.609c0,0.274-0.096,0.477-0.418,0.596l0.441,0.752c0.024,0.06,0.012,0.12-0.048,0.144
				c-0.06,0.023-0.119,0-0.143-0.048l-0.466-0.824h-0.478v0.776c0,0.06-0.048,0.107-0.107,0.107s-0.107-0.048-0.107-0.107v-1.897
				C197.434,24.048,197.482,24,197.542,24z M197.649,24.191v0.847h0.478c0.31,0,0.418-0.203,0.418-0.429
				c0-0.239-0.144-0.417-0.418-0.417H197.649z"/>
		</g>
	</g>
</g>
</svg>
