<?xml version="1.0" encoding="utf-8"?>
<!-- Generator: Adobe Illustrator 16.0.5, SVG Export Plug-In . SVG Version: 6.00 Build 0)  -->
<!DOCTYPE svg PUBLIC "-//W3C//DTD SVG 1.1//EN" "http://www.w3.org/Graphics/SVG/1.1/DTD/svg11.dtd">
<svg version="1.1" id="Layer_1" xmlns="http://www.w3.org/2000/svg" xmlns:xlink="http://www.w3.org/1999/xlink" x="0px" y="0px"
	 width="335.055px" height="72px" viewBox="0 0 335.055 72" enable-background="new 0 0 335.055 72" xml:space="preserve">
<g>
	<g>
		<g>
			<g>
				<path d="M330.806,38.581c1.935,0,3.311,1.475,3.311,3.31s-1.376,3.31-3.311,3.31c-1.933,0-3.309-1.475-3.309-3.31
					S328.872,38.581,330.806,38.581z M330.806,44.861c1.775,0,2.932-1.356,2.932-2.97c0-1.615-1.156-2.97-2.932-2.97
					c-1.773,0-2.93,1.355-2.93,2.97C327.876,43.505,329.031,44.861,330.806,44.861z M330.008,40.096h0.978
					c0.618,0,1.057,0.358,1.057,1.017c0,0.458-0.159,0.796-0.698,0.996l0.738,1.256c0.04,0.101,0.02,0.2-0.08,0.24
					c-0.101,0.039-0.199,0-0.239-0.08l-0.777-1.375h-0.798v1.296c0,0.1-0.08,0.18-0.18,0.18c-0.099,0-0.179-0.081-0.179-0.18v-3.17
					C329.829,40.176,329.909,40.096,330.008,40.096z M330.188,40.415v1.416h0.798c0.518,0,0.697-0.339,0.697-0.717
					c0-0.4-0.239-0.698-0.697-0.698H330.188z"/>
			</g>
		</g>
	</g>
	<g>
		<g>
			<g>
				<path d="M82.074,62.424l4.251,8.712c0.038,0.076,0.076,0.171,0.076,0.246c0,0.305-0.229,0.514-0.551,0.514
					c-0.266,0-0.38-0.133-0.512-0.38l-1.215-2.486h-5.086l-1.215,2.486c-0.133,0.246-0.247,0.38-0.512,0.38
					c-0.323,0-0.551-0.209-0.551-0.514c0-0.075,0.039-0.17,0.076-0.246l4.251-8.712c0.114-0.227,0.266-0.322,0.494-0.322
					S81.96,62.197,82.074,62.424z M81.581,63.638l-2.107,4.479h4.214L81.581,63.638z"/>
				<path d="M103.177,63.544c0.133,0.132,0.19,0.265,0.19,0.417c0,0.265-0.228,0.494-0.512,0.494c-0.19,0-0.342-0.077-0.512-0.246
					c-0.74-0.703-1.595-1.197-2.847-1.197c-2.772,0-4.081,1.974-4.081,3.985c0,2.013,1.309,3.986,4.081,3.986
					c1.252,0,2.106-0.493,2.847-1.195c0.171-0.171,0.323-0.247,0.512-0.247c0.285,0,0.512,0.229,0.512,0.494
					c0,0.151-0.057,0.285-0.19,0.417c-0.873,0.93-2.221,1.519-3.777,1.519c-3.378,0-5.125-2.392-5.125-4.974
					c0-2.58,1.747-4.972,5.125-4.972C100.956,62.026,102.303,62.614,103.177,63.544z"/>
				<path d="M106.809,70.757h5.675c0.266,0,0.494,0.228,0.494,0.494c0,0.266-0.228,0.493-0.494,0.493h-6.245
					c-0.341,0-0.569-0.266-0.569-0.569v-8.351c0-0.322,0.246-0.57,0.569-0.57h6.036c0.266,0,0.494,0.229,0.494,0.494
					c0,0.266-0.228,0.494-0.494,0.494h-5.466v3.036h3.208c0.266,0,0.494,0.228,0.494,0.494c0,0.266-0.228,0.494-0.494,0.494h-3.208
					V70.757z"/>
				<path d="M121.777,70.757c0.265,0,0.494,0.208,0.494,0.494c0,0.285-0.229,0.493-0.494,0.493h-5.998
					c-0.342,0-0.569-0.266-0.569-0.569v-8.504c0-0.322,0.247-0.569,0.569-0.569s0.569,0.247,0.569,0.569v8.086H121.777
					L121.777,70.757z"/>
				<path d="M125.548,70.757h5.675c0.266,0,0.493,0.228,0.493,0.494c0,0.266-0.227,0.493-0.493,0.493h-6.245
					c-0.342,0-0.569-0.266-0.569-0.569v-8.351c0-0.322,0.247-0.57,0.569-0.57h6.036c0.266,0,0.494,0.229,0.494,0.494
					c0,0.266-0.228,0.494-0.494,0.494h-5.466v3.036h3.208c0.265,0,0.493,0.228,0.493,0.494c0,0.266-0.228,0.494-0.493,0.494h-3.208
					V70.757L125.548,70.757z"/>
				<path d="M135.087,71.326c0,0.322-0.246,0.569-0.569,0.569c-0.323,0-0.569-0.247-0.569-0.569v-8.503
					c0-0.341,0.246-0.57,0.569-0.57h4.67c2.145,0,3.265,1.12,3.265,2.696c0,1.272-0.797,2.295-2.315,2.6l1.936,3.549
					c0.038,0.076,0.076,0.171,0.076,0.284c0,0.286-0.228,0.514-0.531,0.514c-0.247,0-0.398-0.113-0.493-0.305l-2.164-3.966h-3.872
					L135.087,71.326L135.087,71.326z M139.357,63.221h-4.271v3.435h4.271c1.234,0,1.956-0.683,1.956-1.708
					C141.313,63.923,140.592,63.221,139.357,63.221z"/>
				<path d="M146.348,71.326c0,0.322-0.246,0.569-0.569,0.569c-0.323,0-0.569-0.247-0.569-0.569V62.67
					c0-0.322,0.247-0.569,0.569-0.569c0.323,0,0.569,0.247,0.569,0.569V71.326z"/>
				<path d="M153.966,62.424l4.252,8.712c0.037,0.076,0.076,0.171,0.076,0.246c0,0.305-0.228,0.514-0.55,0.514
					c-0.266,0-0.38-0.133-0.513-0.38l-1.214-2.486h-5.087l-1.215,2.486c-0.133,0.246-0.247,0.38-0.512,0.38
					c-0.323,0-0.55-0.209-0.55-0.514c0-0.075,0.038-0.17,0.076-0.246l4.252-8.712c0.114-0.227,0.266-0.322,0.493-0.322
					C153.701,62.101,153.853,62.197,153.966,62.424z M153.472,63.638l-2.107,4.479h4.214L153.472,63.638z"/>
				<path d="M167.992,69.979v-7.327c0-0.304,0.247-0.551,0.551-0.551c0.304,0,0.551,0.247,0.551,0.551v8.674
					c0,0.304-0.19,0.551-0.551,0.551c-0.227,0-0.38-0.133-0.513-0.286l-6.358-7.535v7.289c0,0.304-0.266,0.551-0.55,0.551
					c-0.304,0-0.551-0.247-0.551-0.551v-8.692c0-0.323,0.209-0.551,0.551-0.551c0.227,0,0.36,0.114,0.493,0.266L167.992,69.979z"/>
				<path d="M183.439,67.075h3.378c0.266,0,0.475,0.208,0.475,0.474v2.411c0,0.151-0.077,0.266-0.172,0.38
					c-0.854,0.911-2.429,1.632-4.157,1.632c-3.359,0-5.144-2.354-5.144-4.974c0-2.808,1.974-4.972,5.144-4.972
					c1.405,0,2.752,0.474,3.625,1.347c0.095,0.095,0.19,0.209,0.19,0.361c0,0.266-0.228,0.493-0.514,0.493
					c-0.151,0-0.265-0.037-0.379-0.132c-0.74-0.627-1.613-1.082-2.923-1.082c-2.563,0-4.004,1.841-4.004,3.985
					c0,2.031,1.291,4.044,4.024,4.044c1.309,0,2.335-0.437,3.227-1.158v-1.859h-2.771c-0.266,0-0.475-0.19-0.475-0.475
					C182.964,67.283,183.172,67.075,183.439,67.075z"/>
				<path d="M191.116,71.326c0,0.322-0.247,0.569-0.57,0.569c-0.323,0-0.569-0.247-0.569-0.569v-8.503
					c0-0.341,0.247-0.57,0.569-0.57h4.669c2.145,0,3.265,1.12,3.265,2.696c0,1.272-0.797,2.295-2.316,2.6l1.936,3.549
					c0.038,0.076,0.077,0.171,0.077,0.284c0,0.286-0.228,0.514-0.532,0.514c-0.247,0-0.399-0.113-0.494-0.305l-2.164-3.966h-3.872
					L191.116,71.326L191.116,71.326z M195.387,63.221h-4.271v3.435h4.271c1.234,0,1.955-0.683,1.955-1.708
					C197.341,63.923,196.62,63.221,195.387,63.221z"/>
				<path d="M205.542,71.97c-3.171,0-5.011-2.296-5.011-4.973s1.84-4.973,5.011-4.973c3.169,0,5.01,2.296,5.01,4.973
					S208.71,71.97,205.542,71.97z M209.413,66.998c0-2.087-1.348-4.003-3.871-4.003c-2.525,0-3.872,1.917-3.872,4.003
					c0,2.088,1.347,4.006,3.872,4.006C208.065,71.004,209.413,69.086,209.413,66.998z"/>
				<path d="M212.961,68.005V62.67c0-0.322,0.247-0.569,0.569-0.569c0.322,0,0.569,0.247,0.569,0.569v5.429
					c0,1.689,1.158,2.885,3.284,2.885c2.125,0,3.284-1.195,3.284-2.885V62.67c0-0.322,0.247-0.569,0.569-0.569
					c0.322,0,0.57,0.247,0.57,0.569v5.334c0,2.429-1.728,3.966-4.423,3.966C214.689,71.97,212.961,70.433,212.961,68.005z"/>
				<path d="M226.068,71.326c0,0.322-0.246,0.569-0.569,0.569c-0.322,0-0.57-0.247-0.57-0.569v-8.503c0-0.341,0.248-0.57,0.57-0.57
					h4.194c2.145,0,3.265,1.159,3.265,2.733c0,1.595-1.12,2.714-3.265,2.714h-3.625V71.326z M229.865,63.221h-3.796v3.511h3.796
					c1.233,0,1.954-0.721,1.954-1.746C231.819,63.962,231.098,63.221,229.865,63.221z"/>
				<path d="M249.412,63.544c0.132,0.132,0.19,0.265,0.19,0.417c0,0.265-0.229,0.494-0.513,0.494c-0.19,0-0.342-0.077-0.513-0.246
					c-0.74-0.703-1.594-1.197-2.848-1.197c-2.771,0-4.081,1.974-4.081,3.985c0,2.013,1.31,3.986,4.081,3.986
					c1.253,0,2.107-0.493,2.848-1.195c0.171-0.171,0.323-0.247,0.513-0.247c0.284,0,0.513,0.229,0.513,0.494
					c0,0.151-0.058,0.285-0.19,0.417c-0.874,0.93-2.221,1.519-3.777,1.519c-3.379,0-5.125-2.392-5.125-4.974
					c0-2.58,1.746-4.972,5.125-4.972C247.191,62.026,248.538,62.614,249.412,63.544z"/>
				<path d="M256.253,71.97c-3.17,0-5.011-2.296-5.011-4.973s1.841-4.973,5.011-4.973s5.01,2.296,5.01,4.973
					S259.423,71.97,256.253,71.97z M260.125,66.998c0-2.087-1.348-4.003-3.872-4.003c-2.525,0-3.872,1.917-3.872,4.003
					c0,2.088,1.347,4.006,3.872,4.006C258.778,71.004,260.125,69.086,260.125,66.998z"/>
				<path d="M274.073,71.344c0,0.304-0.246,0.551-0.55,0.551c-0.303,0-0.55-0.247-0.55-0.551v-6.795l-3.474,6.966
					c-0.132,0.246-0.265,0.38-0.55,0.38c-0.285,0-0.418-0.133-0.55-0.38l-3.473-6.966v6.795c0,0.304-0.247,0.551-0.551,0.551
					s-0.551-0.247-0.551-0.551v-8.692c0-0.342,0.247-0.551,0.551-0.551c0.323,0,0.474,0.151,0.608,0.417l3.967,7.953l3.966-7.953
					c0.133-0.266,0.286-0.417,0.608-0.417c0.304,0,0.55,0.209,0.55,0.551L274.073,71.344L274.073,71.344z"/>
				<path d="M278.43,71.326c0,0.322-0.246,0.569-0.569,0.569s-0.57-0.247-0.57-0.569v-8.503c0-0.341,0.247-0.57,0.57-0.57h4.194
					c2.144,0,3.265,1.159,3.265,2.733c0,1.595-1.12,2.714-3.265,2.714h-3.625V71.326L278.43,71.326z M282.227,63.221h-3.796v3.511
					h3.796c1.233,0,1.954-0.721,1.954-1.746C284.181,63.962,283.459,63.221,282.227,63.221z"/>
				<path d="M291.006,62.424l4.252,8.712c0.038,0.076,0.076,0.171,0.076,0.246c0,0.305-0.228,0.514-0.55,0.514
					c-0.266,0-0.38-0.133-0.512-0.38l-1.215-2.486h-5.087l-1.215,2.486c-0.132,0.246-0.247,0.38-0.512,0.38
					c-0.323,0-0.55-0.209-0.55-0.514c0-0.075,0.038-0.17,0.076-0.246l4.252-8.712c0.114-0.227,0.265-0.322,0.494-0.322
					C290.742,62.101,290.893,62.197,291.006,62.424z M290.513,63.638l-2.106,4.479h4.213L290.513,63.638z"/>
				<path d="M305.032,69.979v-7.327c0-0.304,0.246-0.551,0.551-0.551c0.303,0,0.55,0.247,0.55,0.551v8.674
					c0,0.304-0.189,0.551-0.55,0.551c-0.228,0-0.381-0.133-0.513-0.286l-6.358-7.535v7.289c0,0.304-0.266,0.551-0.551,0.551
					c-0.304,0-0.551-0.247-0.551-0.551v-8.692c0-0.323,0.209-0.551,0.551-0.551c0.228,0,0.361,0.114,0.494,0.266L305.032,69.979z"/>
				<path d="M312.914,67.682v3.644c0,0.322-0.246,0.569-0.569,0.569c-0.322,0-0.568-0.247-0.568-0.569v-3.644l-3.626-4.727
					c-0.095-0.114-0.151-0.208-0.151-0.341c0-0.304,0.228-0.513,0.55-0.513c0.21,0,0.323,0.076,0.456,0.247l3.34,4.346l3.341-4.346
					c0.133-0.171,0.246-0.247,0.455-0.247c0.323,0,0.551,0.209,0.551,0.513c0,0.133-0.057,0.227-0.151,0.341L312.914,67.682z"/>
			</g>
		</g>
		<path d="M30.061,32.707c-0.291,0-0.57-0.116-0.776-0.321l-9.762-9.763c-3.455-3.457-3.455-9.081,0-12.538l9.762-9.762
			c0.207-0.206,0.486-0.322,0.776-0.322l0,0c0.292,0,0.571,0.116,0.776,0.322l9.76,9.762c1.669,1.668,2.587,3.895,2.587,6.269
			c0,2.375-0.918,4.6-2.587,6.27l-9.76,9.761C30.632,32.592,30.353,32.707,30.061,32.707z M30.061,2.654l-8.986,8.985
			c-2.599,2.6-2.599,6.831,0,9.432l8.986,8.986l8.984-8.986c1.254-1.253,1.945-2.929,1.945-4.716s-0.691-3.462-1.945-4.716
			L30.061,2.654z"/>
		<path d="M30.019,66.427L30.019,66.427c-0.291,0-0.57-0.115-0.776-0.322L2.595,39.456c-3.454-3.457-3.454-9.08,0-12.535
			l6.115-6.114c0.428-0.428,1.124-0.429,1.553,0l26.646,26.646c1.669,1.67,2.589,3.896,2.589,6.27c0,2.374-0.919,4.6-2.589,6.269
			l-6.114,6.113C30.59,66.312,30.311,66.427,30.019,66.427z M9.487,23.137l-5.338,5.337c-2.598,2.6-2.598,6.829,0,9.43l25.87,25.872
			l5.337-5.339c1.255-1.253,1.946-2.927,1.946-4.714c0-1.788-0.691-3.462-1.946-4.717L9.487,23.137z"/>
		<path d="M46.896,49.567c-0.281,0-0.562-0.107-0.776-0.322l-6.1-6.097c-3.455-3.458-3.455-9.083,0-12.54l9.782-9.783
			c0.429-0.429,1.124-0.429,1.553,0l6.1,6.098c3.457,3.456,3.457,9.081,0,12.539l-9.783,9.784
			C47.458,49.458,47.177,49.567,46.896,49.567z M50.579,23.154l-9.005,9.006c-2.599,2.6-2.599,6.833,0,9.434l5.322,5.32l9.006-9.007
			c2.601-2.601,2.601-6.833,0-9.432L50.579,23.154z"/>
		<g>
			<g>
				<path d="M81.164,43.53c0,0.953-0.696,1.722-1.722,1.722c-1.026,0-1.722-0.77-1.722-1.722V28.359
					c0-0.952,0.623-1.722,1.722-1.722h7.768c4.763,0,6.852,2.529,6.852,5.533c0,3.005-2.089,5.534-6.852,5.534h-6.046V43.53z
					 M87.612,29.495h-6.449v5.35h6.449c2.015,0,3.005-1.099,3.005-2.675C90.617,30.594,89.627,29.495,87.612,29.495z"/>
				<path d="M106.249,27.297l7.695,15.684c0.147,0.292,0.22,0.549,0.22,0.806c0,0.879-0.732,1.465-1.539,1.465
					c-0.66,0-1.246-0.33-1.612-1.136l-1.796-3.702h-8.868l-1.796,3.702c-0.367,0.806-0.953,1.136-1.612,1.136
					c-0.806,0-1.539-0.586-1.539-1.465c0-0.257,0.073-0.514,0.22-0.806l7.695-15.684c0.293-0.623,0.696-0.953,1.465-0.953
					C105.552,26.344,105.956,26.674,106.249,27.297z M101.559,37.777h6.449l-3.224-6.852L101.559,37.777z"/>
				<path d="M131.48,41.991c0.806,0,1.502,0.586,1.502,1.502c0,0.806-0.696,1.465-1.502,1.465h-10.81
					c-0.99,0-1.723-0.659-1.723-1.721V28.066c0-0.952,0.77-1.722,1.723-1.722c0.952,0,1.722,0.77,1.722,1.722v13.926L131.48,41.991
					L131.48,41.991z"/>
				<path d="M154.789,27.443c0.367-0.696,0.843-1.099,1.649-1.099c0.953,0,1.686,0.623,1.686,1.722v15.538
					c0,0.916-0.733,1.649-1.649,1.649c-0.953,0-1.649-0.733-1.649-1.649v-9.895l-5.459,10.554c-0.293,0.549-0.733,0.99-1.502,0.99
					c-0.77,0-1.21-0.44-1.503-0.99l-5.459-10.554v9.894c0,0.916-0.696,1.65-1.649,1.65c-0.916,0-1.649-0.733-1.649-1.65V28.066
					c0-1.099,0.733-1.722,1.686-1.722c0.806,0,1.283,0.404,1.649,1.099l6.926,13.338L154.789,27.443z"/>
				<path d="M168.211,42.028h9.93c0.806,0,1.466,0.659,1.466,1.466c0,0.806-0.66,1.465-1.466,1.465h-11.652
					c-0.989,0-1.722-0.696-1.722-1.721V28.359c0-0.952,0.659-1.722,1.686-1.722h11.25c0.806,0,1.466,0.66,1.466,1.466
					c0,0.807-0.66,1.465-1.466,1.465h-9.491v4.508h5.533c0.806,0,1.465,0.66,1.465,1.465c0,0.806-0.659,1.466-1.465,1.466h-5.533
					V42.028z"/>
				<path d="M193.597,29.568V43.53c0,0.953-0.77,1.722-1.722,1.722s-1.722-0.77-1.722-1.722V29.568h-5.496
					c-0.807,0-1.502-0.623-1.502-1.465s0.695-1.465,1.502-1.465h14.436c0.807,0,1.502,0.623,1.502,1.465s-0.696,1.465-1.502,1.465
					H193.597z"/>
				<path d="M214.608,29.568V43.53c0,0.953-0.771,1.722-1.722,1.722c-0.953,0-1.722-0.77-1.722-1.722V29.568h-5.497
					c-0.806,0-1.503-0.623-1.503-1.465s0.697-1.465,1.503-1.465h14.438c0.806,0,1.502,0.623,1.502,1.465s-0.697,1.465-1.502,1.465
					H214.608z"/>
				<path d="M224.335,35.798c0-5.35,3.774-9.6,9.82-9.6c6.047,0,9.82,4.25,9.82,9.6c0,5.351-3.773,9.601-9.82,9.601
					C228.11,45.398,224.335,41.148,224.335,35.798z M240.532,35.798c0-3.7-2.345-6.668-6.376-6.668c-4.03,0-6.376,2.968-6.376,6.668
					c0,3.701,2.345,6.669,6.376,6.669S240.532,39.498,240.532,35.798z"/>
				<path d="M271.935,35.468h5.973c0.806,0,1.429,0.477,1.429,1.43v4.434c0,0.44-0.147,0.697-0.44,1.027
					c-1.649,1.685-4.543,3.04-7.915,3.04c-6.816,0-10.223-4.213-10.223-9.601c0-5.496,4.178-9.6,10.149-9.6
					c2.529,0,5.167,0.77,7,2.418c0.439,0.404,0.622,0.807,0.622,1.209c0,0.807-0.696,1.465-1.501,1.465
					c-0.331,0-0.623-0.073-0.916-0.293c-1.466-1.098-3.005-1.831-5.205-1.831c-4.323,0-6.705,2.968-6.705,6.632
					c0,3.519,1.832,6.779,6.779,6.779c1.978,0,3.665-0.586,5.057-1.649v-2.639h-4.104c-0.806,0-1.429-0.586-1.429-1.393
					C270.505,36.091,271.128,35.468,271.935,35.468z"/>
				<path d="M300.24,31.107c0,1.796-1.099,3.372-3.188,4.142c3.078,0.403,4.324,2.234,4.324,4.397c0,2.712-2.089,5.313-7.218,5.313
					h-7.292c-1.1,0-1.723-0.77-1.723-1.721V28.359c0-1.062,0.771-1.722,1.723-1.722h7.182
					C297.932,26.636,300.24,28.25,300.24,31.107z M288.588,34.003h5.386c1.943,0,2.786-1.099,2.786-2.383
					c0-1.429-1.027-2.125-2.932-2.125h-5.24L288.588,34.003L288.588,34.003z M288.588,36.86v5.241h5.789
					c2.602,0,3.591-1.209,3.591-2.712c0-1.65-1.394-2.529-3.665-2.529H288.588z"/>
				<path d="M315.854,27.297l7.696,15.684c0.146,0.292,0.219,0.549,0.219,0.806c0,0.879-0.733,1.465-1.539,1.465
					c-0.66,0-1.246-0.33-1.611-1.136l-1.796-3.702h-8.868l-1.795,3.702c-0.367,0.806-0.954,1.136-1.612,1.136
					c-0.807,0-1.539-0.586-1.539-1.465c0-0.257,0.073-0.514,0.22-0.806l7.695-15.684c0.293-0.623,0.695-0.953,1.466-0.953
					C315.157,26.344,315.561,26.674,315.854,27.297z M311.164,37.777h6.449l-3.225-6.852L311.164,37.777z"/>
			</g>
		</g>
	</g>
</g>
</svg>
