<?xml version="1.0" encoding="utf-8"?>
<!-- Generator: Adobe Illustrator 16.0.5, SVG Export Plug-In . SVG Version: 6.00 Build 0)  -->
<!DOCTYPE svg PUBLIC "-//W3C//DTD SVG 1.1//EN" "http://www.w3.org/Graphics/SVG/1.1/DTD/svg11.dtd">
<svg version="1.1" id="Layer_1" xmlns="http://www.w3.org/2000/svg" xmlns:xlink="http://www.w3.org/1999/xlink" x="0px" y="0px"
	 width="20px" height="20px" viewBox="0 0 20 20" enable-background="new 0 0 20 20" xml:space="preserve">
<g>
	<path fill="#FFFFFF" d="M18,19H2c-0.552,0-1-0.447-1-1c0-3.677,4.17-5.862,5.835-6.588v-0.526C6.334,9.976,5,7.407,5,5.875
		c0-2.757,2.243-5,5-5s5,2.243,5,5c0,1.532-1.335,4.101-1.836,5.012v0.525C14.829,12.138,19,14.323,19,18C19,18.553,18.553,19,18,19
		z M3.189,17h13.625c-0.919-2.46-4.939-3.955-4.985-3.972c-0.398-0.142-0.665-0.52-0.665-0.942v-1.46
		c0-0.173,0.045-0.343,0.131-0.494C12.003,8.884,13,6.738,13,5.875c0-1.654-1.346-3-3-3s-3,1.346-3,3
		c0,0.866,0.997,3.011,1.705,4.257c0.085,0.15,0.13,0.321,0.13,0.494v1.46c0,0.422-0.267,0.8-0.664,0.941
		C6.927,13.473,3.967,14.952,3.189,17z"/>
</g>
</svg>
