<?xml version="1.0" encoding="utf-8"?>
<!-- Generator: Adobe Illustrator 16.0.5, SVG Export Plug-In . SVG Version: 6.00 Build 0)  -->
<!DOCTYPE svg PUBLIC "-//W3C//DTD SVG 1.1//EN" "http://www.w3.org/Graphics/SVG/1.1/DTD/svg11.dtd">
<svg version="1.1" id="Layer_1" xmlns="http://www.w3.org/2000/svg" xmlns:xlink="http://www.w3.org/1999/xlink" x="0px" y="0px"
	 width="20px" height="20px" viewBox="0 0 20 20" enable-background="new 0 0 20 20" xml:space="preserve">
<path fill="#FFFFFF" d="M18.707,17.293l-6.82-6.82C12.585,9.492,13,8.296,13,7c0-3.314-2.687-6-6-6C3.686,1,1,3.686,1,7
	c0,3.313,2.686,6,6,6c1.296,0,2.492-0.415,3.473-1.113l6.82,6.82C17.488,18.902,17.744,19,18,19s0.512-0.098,0.707-0.293
	C19.098,18.316,19.098,17.684,18.707,17.293z M7.001,11C4.791,11,3,9.21,3,7c0-2.209,1.791-4,4.001-4C9.209,3,11,4.791,11,7
	C11,9.21,9.209,11,7.001,11z"/>
</svg>
